<svg
   id="f2d83111-f7e5-43d9-9ccb-60e987ad06af"
   data-name="Layer 1"
   viewBox="0 0 38.2 39.85"
   xmlns="http://www.w3.org/2000/svg">
  <defs>
    <linearGradient id="gradient-light" x1="0%" y1="0%" x2="150%" y2="150%">
        <stop offset="0%" stop-color="#ff0080">
            <animate attributeName="stop-color" values="#ff0080; #00D3FF; #ff0080" dur="5s" repeatCount="indefinite"></animate>
        </stop> 

        <stop offset="100%" stop-color="#00D3FF">
            <animate attributeName="stop-color" values="#00D3FF; #ff0080; #00D3FF" dur="5s" repeatCount="indefinite"></animate>
        </stop>
    </linearGradient> 
    
    <linearGradient id="gradient-dark" x1="0%" y1="0%" x2="150%" y2="150%">
        <stop offset="0%" stop-color="#ff0080">
            <animate attributeName="stop-color" values="#ff0080; #fe0; #ff0080" dur="5s" repeatCount="indefinite"></animate>
        </stop>

        <stop offset="100%" stop-color="#fe0">
            <animate attributeName="stop-color" values="#fe0; #ff0080; #fe0" dur="5s" repeatCount="indefinite"></animate>
        </stop>
    </linearGradient> 
  </defs>
  <path
     id="path2"
     d="M 19.300781 0 L 18.910156 4.8808594 L 19.589844 4.9394531 L 19.650391 4.5703125 L 19.759766 4.6992188 L 19.880859 4.7792969 A 1.14 1.14 0 0 0 20.179688 4.9609375 A 1.42 1.42 0 0 0 20.560547 5.0390625 A 1.59 1.59 0 0 0 20.939453 5.0390625 A 1.61 1.61 0 0 0 21.269531 4.9199219 A 1.22 1.22 0 0 0 21.599609 4.6503906 A 1.83 1.83 0 0 0 21.830078 4.2695312 A 2.24 2.24 0 0 0 21.970703 3.8808594 C 22.000703 3.7008594 22.019063 3.5794531 22.039062 3.4394531 L 22.039062 3.3691406 A 2.53 2.53 0 0 0 22.039062 2.8203125 A 2.34 2.34 0 0 0 21.919922 2.3300781 A 1.59 1.59 0 0 0 21.769531 2.0390625 A 1.21 1.21 0 0 0 21.560547 1.8007812 A 1.13 1.13 0 0 0 21.240234 1.609375 A 1.3 1.3 0 0 0 20.839844 1.5195312 A 1.12 1.12 0 0 0 20.519531 1.5195312 A 1.07 1.07 0 0 0 20.25 1.5898438 L 20.070312 1.6992188 L 19.910156 1.8300781 L 20.050781 0.060546875 L 19.300781 0 z M 13.449219 1.1308594 L 12.800781 1.3691406 L 12.859375 6.6992188 L 13.519531 6.4609375 L 13.449219 1.1308594 z M 23.789062 2.0996094 A 1.3 1.3 0 0 0 23.300781 2.1992188 A 1.13 1.13 0 0 0 22.859375 2.4804688 A 0.84 0.84 0 0 0 22.650391 2.8300781 L 23.380859 3.0507812 A 0.56 0.56 0 0 1 23.470703 2.8808594 A 0.42 0.42 0 0 1 23.619141 2.7695312 A 0.67 0.67 0 0 1 23.839844 2.7695312 A 0.93 0.93 0 0 1 24.109375 2.7695312 A 0.68 0.68 0 0 1 24.380859 2.9003906 A 0.52 0.52 0 0 1 24.560547 3.0800781 A 0.54 0.54 0 0 1 24.640625 3.2890625 A 0.55 0.55 0 0 1 24.640625 3.5390625 L 24.580078 3.7597656 L 24.050781 3.5996094 A 2.89 2.89 0 0 0 23.390625 3.4804688 A 1.74 1.74 0 0 0 22.859375 3.4804688 A 0.91 0.91 0 0 0 22.439453 3.7402344 A 1 1 0 0 0 22.160156 4.5996094 A 1 1 0 0 0 22.300781 4.9804688 A 1.46 1.46 0 0 0 22.599609 5.2890625 A 1.55 1.55 0 0 0 23.050781 5.5 A 1.07 1.07 0 0 0 23.349609 5.5605469 A 0.87 0.87 0 0 0 23.630859 5.5605469 A 1 1 0 0 0 23.880859 5.5 L 24.099609 5.4003906 A 1.37 1.37 0 0 0 24.099609 5.5898438 A 0.86 0.86 0 0 0 24.199219 5.7109375 L 24.939453 5.9296875 A 1 1 0 0 1 24.939453 5.5898438 A 2.45 2.45 0 0 1 25.019531 5.1796875 L 25.460938 3.7207031 A 1.18 1.18 0 0 0 25.460938 3.1992188 A 1.08 1.08 0 0 0 25.279297 2.7597656 A 1.21 1.21 0 0 0 24.910156 2.4199219 A 2.07 2.07 0 0 0 24.390625 2.1796875 A 1.84 1.84 0 0 0 23.789062 2.0996094 z M 20.494141 2.1445312 A 0.69 0.69 0 0 1 20.640625 2.1601562 A 0.72 0.72 0 0 1 20.859375 2.1601562 A 0.55 0.55 0 0 1 21.029297 2.2597656 A 0.63 0.63 0 0 1 21.210938 2.4804688 A 1.07 1.07 0 0 1 21.300781 2.75 A 1.09 1.09 0 0 1 21.300781 3.0097656 A 2.81 2.81 0 0 1 21.279297 3.3007812 L 21.279297 3.4003906 A 2.51 2.51 0 0 1 21.279297 3.6699219 A 1.4 1.4 0 0 1 21.220703 3.9101562 A 1.15 1.15 0 0 1 21.080078 4.1796875 A 0.65 0.65 0 0 1 20.890625 4.359375 A 0.7 0.7 0 0 1 20.689453 4.4394531 A 0.87 0.87 0 0 1 20.460938 4.4394531 A 1 1 0 0 1 20.199219 4.390625 A 0.88 0.88 0 0 1 20.009766 4.2695312 A 0.61 0.61 0 0 1 19.880859 4.1191406 A 1 1 0 0 1 19.779297 3.9394531 L 19.900391 2.5195312 A 0.71 0.71 0 0 1 20 2.3808594 A 0.49 0.49 0 0 1 20.130859 2.2597656 A 0.55 0.55 0 0 1 20.349609 2.1601562 A 0.69 0.69 0 0 1 20.494141 2.1445312 z M 9.7109375 2.6894531 L 9.1308594 3.0605469 L 10.300781 8.2695312 L 10.890625 7.890625 L 9.7109375 2.6894531 z M 27.148438 3.4804688 A 1.48 1.48 0 0 0 26.210938 3.9101562 A 2.23 2.23 0 0 0 25.810547 4.4492188 L 25.75 4.5390625 A 2.24 2.24 0 0 0 25.519531 5.1796875 A 1.62 1.62 0 0 0 25.519531 5.8007812 A 1.47 1.47 0 0 0 25.779297 6.3691406 A 1.75 1.75 0 0 0 26.320312 6.8203125 A 1.69 1.69 0 0 0 26.839844 7 A 1.35 1.35 0 0 0 27.369141 7 A 1.3 1.3 0 0 0 27.830078 6.8203125 A 1 1 0 0 0 28.150391 6.4609375 L 27.519531 6.1191406 A 0.55 0.55 0 0 1 27.359375 6.3007812 A 0.92 0.92 0 0 1 27.130859 6.390625 A 0.77 0.77 0 0 1 26.869141 6.390625 A 1 1 0 0 1 26.630859 6.2792969 A 0.9 0.9 0 0 1 26.330078 6 A 0.79 0.79 0 0 1 26.230469 5.6601562 A 1.24 1.24 0 0 1 26.289062 5.2890625 A 1.8 1.8 0 0 1 26.449219 4.9101562 L 26.5 4.8105469 A 2.54 2.54 0 0 1 26.730469 4.4707031 A 1.28 1.28 0 0 1 27.019531 4.2304688 A 0.85 0.85 0 0 1 27.359375 4.1191406 A 0.78 0.78 0 0 1 27.759766 4.2304688 A 0.83 0.83 0 0 1 27.990234 4.4199219 A 0.7 0.7 0 0 1 28.119141 4.6601562 A 0.74 0.74 0 0 1 28.119141 4.9199219 A 0.73 0.73 0 0 1 28.039062 5.1699219 L 28.660156 5.5195312 A 1.12 1.12 0 0 0 28.820312 5.0097656 A 1 1 0 0 0 28.759766 4.5097656 A 1.43 1.43 0 0 0 28.490234 4.0507812 A 1.79 1.79 0 0 0 27.359375 3.4804688 A 1.48 1.48 0 0 0 27.148438 3.4804688 z M 30.929688 3.8808594 L 27.769531 7.5800781 L 28.339844 8.0800781 L 29.060547 7.2402344 L 29.630859 7.2402344 L 29.490234 9.0898438 L 30.199219 9.6992188 L 30.289062 7.1503906 L 32.289062 6.9296875 L 31.589844 6.3398438 L 30.109375 6.4902344 L 29.650391 6.5507812 L 31.509766 4.3691406 L 30.929688 3.8808594 z M 23.570312 3.9609375 A 1.91 1.91 0 0 1 23.990234 4.0390625 L 24.460938 4.1796875 L 24.279297 4.7890625 L 24.119141 4.9101562 A 0.84 0.84 0 0 1 23.660156 5.0097656 A 1 1 0 0 1 23.400391 4.9707031 A 0.7 0.7 0 0 1 23.169922 4.859375 A 0.67 0.67 0 0 1 23.019531 4.7207031 A 0.64 0.64 0 0 1 22.960938 4.5390625 A 0.46 0.46 0 0 1 22.960938 4.3398438 A 0.53 0.53 0 0 1 23.070312 4.1308594 A 0.44 0.44 0 0 1 23.25 4.0097656 A 0.77 0.77 0 0 1 23.570312 3.9609375 z M 4.859375 8.9707031 A 1.13 1.13 0 0 0 3.859375 9.5390625 A 1.08 1.08 0 0 0 3.7109375 9.8203125 A 1 1 0 0 0 3.6503906 10.109375 A 0.74 0.74 0 0 0 3.6503906 10.320312 A 1.55 1.55 0 0 0 3.6503906 10.529297 L 3.3398438 10.359375 L 2.9609375 10.939453 L 7 13.5 L 7.4199219 12.859375 L 6.0605469 11.960938 L 6.2304688 11.960938 L 6.4003906 11.900391 A 1.33 1.33 0 0 0 6.8691406 11.460938 A 1.23 1.23 0 0 0 7 10.349609 A 1.53 1.53 0 0 0 6.6796875 9.8300781 A 2.28 2.28 0 0 0 6.1601562 9.3808594 L 6.0996094 9.3808594 A 2.73 2.73 0 0 0 5.4609375 9.0605469 A 1.62 1.62 0 0 0 4.859375 8.9707031 z M 4.8398438 9.7304688 A 1 1 0 0 1 5.2109375 9.8105469 A 2.4 2.4 0 0 1 5.6191406 10.099609 L 5.6796875 10.099609 A 1.76 1.76 0 0 1 6.0097656 10.369141 A 1.36 1.36 0 0 1 6.2402344 10.689453 A 0.7 0.7 0 0 1 6.3007812 11.039062 A 0.64 0.64 0 0 1 6.1796875 11.390625 A 0.93 0.93 0 0 1 6.0195312 11.570312 A 0.66 0.66 0 0 1 5.8496094 11.689453 L 5.6601562 11.689453 A 0.61 0.61 0 0 1 5.4707031 11.689453 L 4.1992188 10.839844 A 0.52 0.52 0 0 1 4.1191406 10.650391 A 0.75 0.75 0 0 1 4.1191406 10.439453 A 0.72 0.72 0 0 1 4.1191406 10.25 A 0.87 0.87 0 0 1 4.2207031 10.060547 A 0.69 0.69 0 0 1 4.5 9.8007812 A 0.77 0.77 0 0 1 4.8398438 9.7304688 z M 35.089844 10.609375 L 34.580078 10.849609 L 34.939453 11.599609 L 33.410156 12.330078 A 1.55 1.55 0 0 0 32.939453 12.650391 A 0.9 0.9 0 0 0 32.699219 13.039062 A 0.88 0.88 0 0 0 32.699219 13.470703 A 1.42 1.42 0 0 0 32.839844 13.929688 A 2 2 0 0 0 32.980469 14.179688 L 33.130859 14.419922 L 33.289062 14.619141 A 1.77 1.77 0 0 0 33.460938 14.759766 L 33.900391 14.460938 A 0.62 0.62 0 0 1 33.810547 14.339844 A 1 1 0 0 1 33.699219 14.189453 L 33.589844 14.019531 L 33.5 13.839844 A 0.75 0.75 0 0 1 33.419922 13.599609 A 0.44 0.44 0 0 1 33.560547 13.179688 A 0.75 0.75 0 0 1 33.820312 13 L 35.300781 12.289062 L 35.789062 13.449219 L 36.300781 13.210938 L 35.789062 12.039062 L 36.529297 11.679688 L 36.199219 10.990234 L 35.449219 11.359375 L 35.089844 10.609375 z M 3.2363281 12.128906 A 1.61 1.61 0 0 0 2.8203125 12.210938 A 1.31 1.31 0 0 0 2.2890625 12.550781 A 1.52 1.52 0 0 0 1.9199219 13.119141 A 1.55 1.55 0 0 0 1.7890625 13.800781 A 1.57 1.57 0 0 0 1.9492188 14.400391 A 1.69 1.69 0 0 0 2.3496094 14.890625 A 1.93 1.93 0 0 0 2.9609375 15.240234 L 3.0195312 15.240234 A 1.92 1.92 0 0 0 3.6992188 15.400391 A 1.61 1.61 0 0 0 4.3300781 15.310547 A 1.48 1.48 0 0 0 4.859375 14.980469 A 1.56 1.56 0 0 0 5.2304688 14.400391 A 1.66 1.66 0 0 0 5.359375 13.730469 A 1.48 1.48 0 0 0 5.1992188 13.130859 A 1.73 1.73 0 0 0 4.8007812 12.630859 A 2.12 2.12 0 0 0 4.1894531 12.279297 L 4.1308594 12.279297 A 2.14 2.14 0 0 0 3.4492188 12.130859 A 1.61 1.61 0 0 0 3.2363281 12.128906 z M 3.234375 12.914062 A 1.27 1.27 0 0 1 3.4296875 12.929688 A 1.63 1.63 0 0 1 3.8496094 13.039062 L 3.9101562 13.039062 A 1.79 1.79 0 0 1 4.3007812 13.25 A 1 1 0 0 1 4.5800781 13.519531 A 0.85 0.85 0 0 1 4.7207031 13.859375 A 0.87 0.87 0 0 1 4.4394531 14.550781 A 0.67 0.67 0 0 1 4.1191406 14.699219 A 1.07 1.07 0 0 1 3.7207031 14.699219 A 2.17 2.17 0 0 1 3.3007812 14.589844 L 3.2402344 14.589844 A 1.79 1.79 0 0 1 2.8496094 14.390625 A 1.07 1.07 0 0 1 2.5703125 14.109375 A 0.79 0.79 0 0 1 2.4394531 13.779297 A 0.73 0.73 0 0 1 2.4902344 13.400391 A 0.76 0.76 0 0 1 2.7109375 13.080078 A 1 1 0 0 1 3.0390625 12.929688 A 1.27 1.27 0 0 1 3.234375 12.914062 z M 35.488281 14.375 A 2.11 2.11 0 0 0 35.009766 14.429688 L 34.949219 14.429688 A 2.12 2.12 0 0 0 34.300781 14.699219 A 1.62 1.62 0 0 0 33.849609 15.130859 A 1.45 1.45 0 0 0 33.609375 15.699219 A 1.76 1.76 0 0 0 33.900391 17.019531 A 1.28 1.28 0 0 0 34.369141 17.419922 A 1.6 1.6 0 0 0 34.980469 17.599609 A 2.12 2.12 0 0 0 35.679688 17.539062 L 35.75 17.539062 A 2 2 0 0 0 36.400391 17.279297 A 1.61 1.61 0 0 0 36.859375 16.839844 A 1.45 1.45 0 0 0 37.099609 16.269531 A 1.63 1.63 0 0 0 37.099609 15.580078 A 1.53 1.53 0 0 0 36.820312 14.960938 A 1.43 1.43 0 0 0 36.339844 14.560547 A 1.49 1.49 0 0 0 35.730469 14.390625 A 2.11 2.11 0 0 0 35.488281 14.375 z M 35.640625 15.179688 A 1.23 1.23 0 0 1 36.029297 15.240234 A 0.75 0.75 0 0 1 36.330078 15.439453 A 0.79 0.79 0 0 1 36.509766 15.779297 A 0.81 0.81 0 0 1 36.509766 16.160156 A 1 1 0 0 1 36.330078 16.480469 A 2 2 0 0 1 36.009766 16.710938 A 2.48 2.48 0 0 1 35.599609 16.859375 L 35.539062 16.859375 A 1.72 1.72 0 0 1 35.099609 16.919922 A 1 1 0 0 1 34.710938 16.849609 A 0.67 0.67 0 0 1 34.410156 16.660156 A 0.73 0.73 0 0 1 34.240234 16.320312 A 0.65 0.65 0 0 1 34.240234 15.929688 A 0.73 0.73 0 0 1 34.410156 15.619141 A 1.09 1.09 0 0 1 34.730469 15.390625 L 34.730469 15.349609 A 1.44 1.44 0 0 1 35.140625 15.230469 L 35.210938 15.230469 A 1.63 1.63 0 0 1 35.640625 15.179688 z M 1.1699219 15.5 L 0.9609375 16.779297 L 0.11914062 16.640625 L -0.009765625 17.390625 L 0.8203125 17.529297 L 0.6796875 18.349609 L 1.2402344 18.439453 L 1.3808594 17.619141 L 3.0390625 17.900391 A 1.63 1.63 0 0 0 3.6191406 17.900391 A 1.13 1.13 0 0 0 4.0390625 17.730469 A 1 1 0 0 0 4.3203125 17.390625 A 1.49 1.49 0 0 0 4.4707031 16.939453 A 2.85 2.85 0 0 0 4.4707031 16.650391 A 2.72 2.72 0 0 0 4.4707031 16.369141 A 2.11 2.11 0 0 0 4.4707031 16.109375 A 1.08 1.08 0 0 0 4.4199219 15.900391 L 3.890625 15.900391 L 3.890625 16.220703 A 1.48 1.48 0 0 1 3.890625 16.429688 A 1.23 1.23 0 0 1 3.890625 16.630859 A 1.37 1.37 0 0 1 3.8203125 16.869141 A 0.62 0.62 0 0 1 3.6796875 17.050781 A 0.49 0.49 0 0 1 3.4609375 17.140625 A 0.94 0.94 0 0 1 3.1308594 17.140625 L 1.5195312 16.869141 L 1.7304688 15.599609 L 1.1699219 15.5 z M 37.009766 21.640625 L 36.859375 22.460938 L 35.199219 22.160156 A 1.59 1.59 0 0 0 34.630859 22.160156 A 1.13 1.13 0 0 0 34.210938 22.330078 A 0.94 0.94 0 0 0 33.919922 22.660156 A 1.49 1.49 0 0 0 33.769531 23.109375 A 2.89 2.89 0 0 0 33.769531 23.400391 A 2.72 2.72 0 0 0 33.769531 23.679688 A 2.17 2.17 0 0 0 33.769531 23.939453 A 1.05 1.05 0 0 0 33.830078 24.150391 L 34.359375 24.150391 A 0.66 0.66 0 0 1 34.359375 24 L 34.359375 23.820312 L 34.359375 23.619141 L 34.359375 23.419922 A 0.85 0.85 0 0 1 34.439453 23.179688 A 0.42 0.42 0 0 1 34.580078 23 A 0.63 0.63 0 0 1 34.800781 22.910156 A 1.18 1.18 0 0 1 35.119141 22.910156 L 36.740234 23.210938 L 36.509766 24.480469 L 37.060547 24.580078 L 37.300781 23.310547 L 38.109375 23.460938 L 38.25 22.710938 L 37.419922 22.560547 L 37.570312 21.740234 L 37.009766 21.640625 z M 3.0546875 22.474609 A 2.12 2.12 0 0 0 2.5898438 22.539062 L 2.5292969 22.539062 A 1.91 1.91 0 0 0 1.8808594 22.820312 A 1.58 1.58 0 0 0 1.4199219 23.25 A 1.34 1.34 0 0 0 1.1894531 23.830078 A 1.63 1.63 0 0 0 1.1894531 24.519531 A 1.71 1.71 0 0 0 1.4902344 25.140625 A 1.29 1.29 0 0 0 1.9707031 25.529297 A 1.72 1.72 0 0 0 2.5800781 25.699219 A 2.41 2.41 0 0 0 3.3007812 25.640625 L 3.3398438 25.640625 A 2.41 2.41 0 0 0 3.9902344 25.359375 A 1.61 1.61 0 0 0 4.4492188 24.919922 A 1.29 1.29 0 0 0 4.6796875 24.339844 A 1.63 1.63 0 0 0 4.6796875 23.650391 A 1.66 1.66 0 0 0 4.3808594 23.039062 A 1.43 1.43 0 0 0 3.9003906 22.640625 A 1.53 1.53 0 0 0 3.2890625 22.480469 A 2.12 2.12 0 0 0 3.0546875 22.474609 z M 3.1992188 23.179688 A 1.23 1.23 0 0 1 3.5898438 23.240234 A 0.67 0.67 0 0 1 3.890625 23.429688 A 0.63 0.63 0 0 1 4.0703125 23.759766 A 0.74 0.74 0 0 1 4.0703125 24.150391 A 0.73 0.73 0 0 1 3.890625 24.470703 A 0.93 0.93 0 0 1 3.5800781 24.699219 L 3.5703125 24.699219 A 1.67 1.67 0 0 1 3.1796875 24.910156 L 3.109375 24.910156 A 2.1 2.1 0 0 1 2.6796875 24.910156 A 0.84 0.84 0 0 1 2.2890625 24.849609 A 0.8 0.8 0 0 1 1.9902344 24.660156 A 0.75 0.75 0 0 1 1.8105469 24.330078 A 0.65 0.65 0 0 1 1.8105469 23.939453 A 0.83 0.83 0 0 1 1.9804688 23.619141 A 1.31 1.31 0 0 1 2.3007812 23.390625 A 1.38 1.38 0 0 1 2.6992188 23.240234 L 2.7695312 23.240234 A 1.65 1.65 0 0 1 3.1992188 23.179688 z M 34.460938 24.609375 A 1.66 1.66 0 0 0 33.830078 24.699219 A 1.4 1.4 0 0 0 33.300781 25.019531 A 1.78 1.78 0 0 0 32.810547 26.300781 A 1.56 1.56 0 0 0 32.960938 26.900391 A 1.83 1.83 0 0 0 33.349609 27.400391 A 2.4 2.4 0 0 0 33.960938 27.759766 L 34.019531 27.759766 A 2.48 2.48 0 0 0 34.699219 27.919922 A 1.66 1.66 0 0 0 35.330078 27.839844 A 1.39 1.39 0 0 0 35.859375 27.509766 A 1.46 1.46 0 0 0 36.240234 26.939453 A 1.51 1.51 0 0 0 36.369141 26.269531 A 1.21 1.21 0 0 0 36.220703 25.669922 A 1.45 1.45 0 0 0 35.830078 25.169922 A 2.25 2.25 0 0 0 35.210938 24.779297 L 35.150391 24.779297 A 2.25 2.25 0 0 0 34.460938 24.609375 z M 4.8808594 25.279297 L 4.4394531 25.589844 L 4.5292969 25.699219 L 4.6308594 25.839844 C 4.6708594 25.889844 4.7402344 25.949766 4.7402344 26.009766 A 1.62 1.62 0 0 1 4.8398438 26.189453 A 0.75 0.75 0 0 1 4.9199219 26.429688 A 0.41 0.41 0 0 1 4.9199219 26.650391 A 0.47 0.47 0 0 1 4.8007812 26.849609 A 0.85 0.85 0 0 1 4.5292969 27.039062 L 3.0605469 27.759766 L 2.4902344 26.599609 L 1.9804688 26.859375 L 2.5507812 28.009766 L 1.8007812 28.380859 L 2.140625 29.070312 L 2.890625 28.699219 L 3.2890625 29.449219 L 3.8007812 29.199219 L 3.4296875 28.460938 L 4.9394531 27.710938 A 1.62 1.62 0 0 0 5.4101562 27.380859 A 1.15 1.15 0 0 0 5.6503906 26.990234 A 1 1 0 0 0 5.6503906 26.560547 A 1.72 1.72 0 0 0 5.5097656 26.099609 L 5.3691406 25.849609 L 5.2109375 25.619141 A 1.77 1.77 0 0 0 5.0390625 25.419922 A 1 1 0 0 0 4.8808594 25.279297 z M 34.259766 25.341797 A 1.07 1.07 0 0 1 34.460938 25.359375 A 1.79 1.79 0 0 1 34.859375 25.490234 L 34.919922 25.490234 A 1.28 1.28 0 0 1 35.300781 25.699219 A 1 1 0 0 1 35.599609 25.960938 A 0.89 0.89 0 0 1 35.730469 26.300781 A 0.65 0.65 0 0 1 35.669922 26.679688 A 0.67 0.67 0 0 1 35.439453 26.990234 A 0.86 0.86 0 0 1 35.119141 27.140625 A 1.34 1.34 0 0 1 34.720703 27.140625 A 1.48 1.48 0 0 1 34.310547 27.019531 L 34.240234 27.019531 A 2 2 0 0 1 33.859375 26.810547 A 1.24 1.24 0 0 1 33.580078 26.529297 A 0.79 0.79 0 0 1 33.449219 26.199219 A 0.73 0.73 0 0 1 33.509766 25.820312 A 0.7 0.7 0 0 1 33.740234 25.5 A 0.71 0.71 0 0 1 34.060547 25.359375 A 1.07 1.07 0 0 1 34.259766 25.341797 z M 31.230469 26.5 L 30.800781 27.119141 L 32.150391 28.039062 L 31.970703 28.039062 L 31.810547 28.099609 A 1.14 1.14 0 0 0 31.560547 28.279297 A 1.39 1.39 0 0 0 31.330078 28.529297 A 1.25 1.25 0 0 0 31.119141 29.080078 A 1.19 1.19 0 0 0 31.189453 29.640625 A 1.53 1.53 0 0 0 31.5 30.169922 A 2.63 2.63 0 0 0 32.019531 30.630859 A 2.6 2.6 0 0 0 32.660156 30.960938 A 1.64 1.64 0 0 0 33.259766 31.060547 A 1.19 1.19 0 0 0 34.259766 30.5 A 1.51 1.51 0 0 0 34.410156 30.220703 A 1 1 0 0 0 34.480469 29.939453 A 0.81 0.81 0 0 0 34.480469 29.720703 A 1.55 1.55 0 0 0 34.480469 29.509766 L 34.779297 29.679688 L 35.179688 29.109375 L 31.230469 26.5 z M 32.580078 28.322266 A 0.67 0.67 0 0 1 32.679688 28.330078 L 33.939453 29.189453 A 0.8 0.8 0 0 1 34.009766 29.390625 A 0.65 0.65 0 0 1 34.009766 29.589844 A 1.29 1.29 0 0 1 34.009766 29.779297 A 1 1 0 0 1 33.900391 29.980469 A 0.74 0.74 0 0 1 33.619141 30.230469 A 0.77 0.77 0 0 1 33.279297 30.300781 A 1 1 0 0 1 32.910156 30.220703 L 32.449219 29.919922 A 2.42 2.42 0 0 1 32.109375 29.640625 A 1.31 1.31 0 0 1 31.890625 29.320312 A 0.7 0.7 0 0 1 31.830078 28.970703 A 0.76 0.76 0 0 1 31.960938 28.619141 A 0.93 0.93 0 0 1 32.119141 28.439453 L 32.289062 28.330078 A 0.77 0.77 0 0 1 32.480469 28.330078 A 0.67 0.67 0 0 1 32.580078 28.322266 z M 8.1601562 30.359375 L 8.0507812 32.880859 L 6.109375 33.119141 L 6.8105469 33.699219 L 8.2890625 33.490234 L 8.75 33.429688 L 6.9199219 35.630859 L 7.5 36.119141 L 10.599609 32.339844 L 10.009766 31.849609 L 9.3007812 32.699219 L 8.7695312 32.810547 L 8.8808594 30.960938 L 8.1601562 30.359375 z M 27.849609 31.699219 L 27.300781 32.070312 L 28.369141 37.279297 L 28.960938 36.919922 L 27.849609 31.699219 z M 11.246094 32.919922 A 1.57 1.57 0 0 0 11.070312 32.939453 A 1.2 1.2 0 0 0 10.619141 33.130859 A 0.92 0.92 0 0 0 10.300781 33.490234 L 10.890625 33.839844 A 0.4 0.4 0 0 1 11.050781 33.660156 A 0.6 0.6 0 0 1 11.279297 33.560547 A 0.77 0.77 0 0 1 11.539062 33.560547 A 0.62 0.62 0 0 1 11.800781 33.699219 A 0.75 0.75 0 0 1 12.060547 33.929688 A 0.67 0.67 0 0 1 12.160156 34.269531 A 1 1 0 0 1 12.160156 34.650391 A 3 3 0 0 1 12.009766 35.029297 L 11.949219 35.119141 A 1.66 1.66 0 0 1 11.730469 35.460938 A 1 1 0 0 1 11.439453 35.710938 A 0.68 0.68 0 0 1 11.099609 35.820312 A 0.75 0.75 0 0 1 10.710938 35.720703 A 0.71 0.71 0 0 1 10.480469 35.539062 A 0.75 0.75 0 0 1 10.339844 35.300781 A 0.58 0.58 0 0 1 10.339844 35.039062 A 0.61 0.61 0 0 1 10.419922 34.779297 L 9.7890625 34.449219 A 1.05 1.05 0 0 0 9.6308594 34.960938 A 1.21 1.21 0 0 0 9.6992188 35.460938 A 1.35 1.35 0 0 0 9.9804688 35.910156 A 1.86 1.86 0 0 0 10.439453 36.259766 A 1.65 1.65 0 0 0 11.119141 36.460938 A 1.56 1.56 0 0 0 11.730469 36.369141 A 1.49 1.49 0 0 0 12.25 36.019531 A 2 2 0 0 0 12.650391 35.480469 L 12.710938 35.380859 A 2.26 2.26 0 0 0 12.929688 34.75 A 1.66 1.66 0 0 0 12.929688 34.119141 A 1.37 1.37 0 0 0 12.669922 33.560547 A 1.57 1.57 0 0 0 12.119141 33.109375 A 1.45 1.45 0 0 0 11.599609 32.939453 A 1.57 1.57 0 0 0 11.246094 32.919922 z M 25.240234 33.25 L 24.589844 33.490234 L 24.589844 38.820312 L 25.240234 38.580078 L 25.240234 33.25 z M 13.529297 33.960938 A 1.21 1.21 0 0 1 13.529297 34.289062 A 2.12 2.12 0 0 1 13.449219 34.699219 L 13.060547 36.169922 A 1.22 1.22 0 0 0 13.060547 36.699219 A 1 1 0 0 0 13.25 37.140625 A 1.32 1.32 0 0 0 13.619141 37.470703 A 2.22 2.22 0 0 0 14.140625 37.699219 A 1.91 1.91 0 0 0 14.740234 37.779297 A 1.41 1.41 0 0 0 15.230469 37.669922 A 0.93 0.93 0 0 0 15.589844 37.419922 A 0.73 0.73 0 0 0 15.789062 37.070312 L 15.060547 36.859375 A 0.53 0.53 0 0 1 14.980469 37.029297 A 0.33 0.33 0 0 1 14.830078 37.140625 A 0.48 0.48 0 0 1 14.609375 37.189453 A 0.93 0.93 0 0 1 14.339844 37.189453 A 0.74 0.74 0 0 1 13.880859 36.890625 A 0.57 0.57 0 0 1 13.810547 36.669922 A 0.49 0.49 0 0 1 13.810547 36.429688 L 13.869141 36.199219 L 14.400391 36.359375 A 3.49 3.49 0 0 0 15.060547 36.470703 A 1.46 1.46 0 0 0 15.589844 36.410156 A 1 1 0 0 0 16.009766 36.160156 A 1.08 1.08 0 0 0 16.25 35.710938 A 1 1 0 0 0 16.25 35.289062 A 0.89 0.89 0 0 0 16.099609 34.910156 A 1.1 1.1 0 0 0 15.800781 34.599609 A 1.48 1.48 0 0 0 15.050781 34.339844 A 1.29 1.29 0 0 0 14.769531 34.339844 A 0.92 0.92 0 0 0 14.519531 34.400391 A 1.51 1.51 0 0 0 14.300781 34.509766 L 14.300781 34.310547 A 0.81 0.81 0 0 0 14.279297 34.169922 L 13.529297 33.960938 z M 17.660156 34.824219 A 1.2 1.2 0 0 0 17.470703 34.839844 A 1.61 1.61 0 0 0 17.140625 34.960938 A 1.06 1.06 0 0 0 16.820312 35.240234 A 1.33 1.33 0 0 0 16.589844 35.619141 A 1.63 1.63 0 0 0 16.460938 36.009766 A 2.12 2.12 0 0 0 16.400391 36.419922 L 16.400391 36.490234 A 3.29 3.29 0 0 0 16.400391 37.039062 A 1.69 1.69 0 0 0 16.519531 37.519531 A 1.08 1.08 0 0 0 16.679688 37.820312 A 1.15 1.15 0 0 0 16.890625 38.050781 A 1.13 1.13 0 0 0 17.210938 38.240234 A 1.24 1.24 0 0 0 17.609375 38.330078 A 1.67 1.67 0 0 0 17.929688 38.330078 A 0.92 0.92 0 0 0 18.199219 38.25 L 18.380859 38.150391 L 18.529297 38.009766 L 18.410156 39.779297 L 19.169922 39.839844 L 19.509766 34.970703 L 18.820312 34.970703 L 18.759766 35.349609 A 0.76 0.76 0 0 0 18.650391 35.210938 L 18.529297 35.089844 A 1.11 1.11 0 0 0 18.230469 34.919922 A 1.42 1.42 0 0 0 17.849609 34.839844 A 1.2 1.2 0 0 0 17.660156 34.824219 z M 14.625 34.882812 A 1 1 0 0 1 14.75 34.890625 A 0.84 0.84 0 0 1 15.060547 34.929688 A 0.91 0.91 0 0 1 15.300781 35.029297 L 15.410156 35.179688 A 0.48 0.48 0 0 1 15.470703 35.359375 A 0.47 0.47 0 0 1 15.470703 35.560547 A 0.54 0.54 0 0 1 15.369141 35.759766 A 0.43 0.43 0 0 1 15.179688 35.890625 A 0.72 0.72 0 0 1 14.869141 35.939453 A 1.82 1.82 0 0 1 14.439453 35.869141 L 13.970703 35.730469 L 14.150391 35.119141 L 14.300781 35 L 14.5 34.890625 A 1 1 0 0 1 14.625 34.882812 z M 18.169922 35.488281 A 0.71 0.71 0 0 1 18.300781 35.5 A 0.62 0.62 0 0 1 18.419922 35.650391 A 0.57 0.57 0 0 1 18.550781 35.789062 A 1.62 1.62 0 0 1 18.650391 35.970703 L 18.550781 37.390625 L 18.449219 37.539062 L 18.320312 37.660156 A 0.74 0.74 0 0 1 18.099609 37.759766 A 0.86 0.86 0 0 1 17.820312 37.759766 L 17.589844 37.710938 A 0.48 0.48 0 0 1 17.419922 37.609375 A 0.6 0.6 0 0 1 17.240234 37.400391 A 1.08 1.08 0 0 1 17.140625 37.130859 A 1.18 1.18 0 0 1 17.140625 36.859375 A 1.31 1.31 0 0 1 17.220703 36.619141 L 17.220703 36.550781 A 1.24 1.24 0 0 1 17.220703 36.279297 A 1.37 1.37 0 0 1 17.289062 36.039062 A 1.11 1.11 0 0 1 17.410156 35.769531 A 0.72 0.72 0 0 1 17.609375 35.580078 L 17.800781 35.5 A 0.92 0.92 0 0 1 18.039062 35.5 A 0.71 0.71 0 0 1 18.169922 35.488281 z " />
  <path
     id="aefe176f-8c2b-41dc-b2b4-a64ccd4863f1"
     data-name="iconmonstr-arrow-25"
     d="M39,33.29l-1.63-1.66,6.5-6.46,6.5,6.46L48.7,33.29l-4.88-4.87Z"
     transform="translate(-24.7 -9.3)"/>
</svg>
