<svg version="1.1" id="f2d83111-f7e5-43d9-9ccb-60e987ad06af"
	 xmlns="http://www.w3.org/2000/svg" xmlns:xlink="http://www.w3.org/1999/xlink" x="0px" y="0px" viewBox="0 0 38.2 39.8"
	 style="enable-background:new 0 0 38.2 39.8;" xml:space="preserve">
<path id="path2" d="M18.9,39.8l0.4-4.9l-0.7-0.1l-0.1,0.4l-0.1-0.1l-0.1-0.1c-0.1-0.1-0.2-0.1-0.3-0.2c-0.1,0-0.3-0.1-0.4-0.1
	c-0.1,0-0.3,0-0.4,0c-0.1,0-0.2,0.1-0.3,0.1c-0.1,0.1-0.2,0.2-0.3,0.3c-0.1,0.1-0.2,0.2-0.2,0.4c-0.1,0.1-0.1,0.3-0.1,0.4
	c0,0.2,0,0.3-0.1,0.4v0.1c0,0.2,0,0.4,0,0.5c0,0.2,0.1,0.3,0.1,0.5c0,0.1,0.1,0.2,0.2,0.3c0.1,0.1,0.1,0.2,0.2,0.2
	c0.1,0.1,0.2,0.1,0.3,0.2c0.1,0.1,0.3,0.1,0.4,0.1c0.1,0,0.2,0,0.3,0c0.1,0,0.2,0,0.3-0.1l0.2-0.1l0.2-0.1l-0.1,1.8L18.9,39.8z
	 M24.8,38.7l0.6-0.2l-0.1-5.3l-0.7,0.2L24.8,38.7z M14.5,37.7c0.2,0,0.3,0,0.5-0.1c0.2-0.1,0.3-0.2,0.4-0.3c0.1-0.1,0.2-0.2,0.2-0.3
	l-0.7-0.2c0,0.1-0.1,0.1-0.1,0.2c0,0-0.1,0.1-0.1,0.1c-0.1,0-0.1,0-0.2,0c-0.1,0-0.2,0-0.3,0c-0.1,0-0.2-0.1-0.3-0.1
	c-0.1,0-0.1-0.1-0.2-0.2c0-0.1-0.1-0.1-0.1-0.2c0-0.1,0-0.2,0-0.2l0.1-0.2l0.5,0.2c0.2,0.1,0.4,0.1,0.7,0.1c0.2,0,0.4,0,0.5,0
	c0.2,0,0.3-0.1,0.4-0.3c0.2-0.2,0.3-0.5,0.3-0.9c0-0.1-0.1-0.3-0.1-0.4c-0.1-0.1-0.2-0.2-0.3-0.3c-0.1-0.1-0.3-0.2-0.5-0.2
	c-0.1,0-0.2-0.1-0.3-0.1c-0.1,0-0.2,0-0.3,0c-0.1,0-0.2,0-0.2,0.1l-0.2,0.1c0-0.1,0-0.1,0-0.2c0,0-0.1-0.1-0.1-0.1l-0.7-0.2
	c0,0.1,0,0.2,0,0.3c0,0.1,0,0.3-0.1,0.4l-0.4,1.5c0,0.2,0,0.3,0,0.5c0,0.2,0.1,0.3,0.2,0.4c0.1,0.1,0.2,0.3,0.4,0.3
	c0.2,0.1,0.3,0.2,0.5,0.2C14,37.7,14.2,37.7,14.5,37.7z M17.7,37.7c0,0-0.1,0-0.1,0c-0.1,0-0.1,0-0.2,0c-0.1,0-0.1-0.1-0.2-0.1
	c-0.1-0.1-0.1-0.1-0.2-0.2c0-0.1-0.1-0.2-0.1-0.3c0-0.1,0-0.2,0-0.3c0-0.1,0-0.2,0-0.3v-0.1c0-0.1,0-0.2,0-0.3c0-0.1,0-0.2,0.1-0.2
	c0-0.1,0.1-0.2,0.1-0.3c0.1-0.1,0.1-0.1,0.2-0.2c0.1,0,0.1-0.1,0.2-0.1c0.1,0,0.2,0,0.2,0c0.1,0,0.2,0,0.3,0c0.1,0,0.1,0.1,0.2,0.1
	c0.1,0,0.1,0.1,0.1,0.2c0,0.1,0.1,0.1,0.1,0.2l-0.1,1.4c0,0.1-0.1,0.1-0.1,0.1c0,0-0.1,0.1-0.1,0.1c-0.1,0-0.1,0.1-0.2,0.1
	C17.8,37.7,17.8,37.7,17.7,37.7z M28.5,37.2l0.6-0.4l-1.2-5.2l-0.6,0.4L28.5,37.2z M11.1,36.4c0.4,0,0.7-0.2,0.9-0.4
	c0.2-0.2,0.3-0.3,0.4-0.5l0.1-0.1c0.1-0.2,0.2-0.4,0.2-0.6c0-0.2,0-0.4,0-0.6c0-0.2-0.1-0.4-0.3-0.6c-0.1-0.2-0.3-0.3-0.5-0.5
	c-0.2-0.1-0.3-0.1-0.5-0.2c-0.2,0-0.4,0-0.5,0c-0.2,0-0.3,0.1-0.5,0.2c-0.1,0.1-0.2,0.2-0.3,0.4l0.6,0.3c0-0.1,0.1-0.1,0.2-0.2
	c0.1,0,0.1-0.1,0.2-0.1c0.1,0,0.2,0,0.3,0c0.1,0,0.2,0.1,0.2,0.1c0.1,0.1,0.2,0.2,0.3,0.3c0.1,0.1,0.1,0.2,0.1,0.3
	c0,0.1,0,0.3-0.1,0.4c0,0.1-0.1,0.3-0.2,0.4L11.7,35c-0.1,0.1-0.1,0.2-0.2,0.3c-0.1,0.1-0.2,0.2-0.3,0.2c-0.1,0.1-0.2,0.1-0.3,0.1
	c-0.1,0-0.3,0-0.4-0.1c-0.1,0-0.2-0.1-0.2-0.2c-0.1-0.1-0.1-0.2-0.1-0.2c0-0.1,0-0.2,0-0.3c0-0.1,0-0.2,0.1-0.2l-0.6-0.3
	c-0.1,0.2-0.1,0.3-0.2,0.5c0,0.2,0,0.3,0.1,0.5c0.1,0.2,0.2,0.3,0.3,0.5c0.3,0.3,0.7,0.5,1.1,0.6C11,36.4,11,36.4,11.1,36.4z
	 M7.3,36l3.2-3.7l-0.6-0.5l-0.7,0.8H8.6l0.1-1.8L8,30.1L8,32.7l-2,0.2l0.7,0.6l1.5-0.2l0.5-0.1l-1.9,2.2L7.3,36z M14.7,35.9
	c-0.1,0-0.3,0-0.4-0.1l-0.5-0.1l0.2-0.6l0.2-0.1c0.1-0.1,0.3-0.1,0.5-0.1c0.1,0,0.2,0,0.3,0c0.1,0,0.2,0.1,0.2,0.1
	c0.1,0,0.1,0.1,0.2,0.1c0,0.1,0,0.1,0.1,0.2c0,0.1,0,0.1,0,0.2c0,0.1-0.1,0.1-0.1,0.2c0,0.1-0.1,0.1-0.2,0.1
	C14.9,35.9,14.8,35.9,14.7,35.9z M33.4,30.9c0.4,0,0.8-0.2,1-0.6c0.1-0.1,0.1-0.2,0.1-0.3c0-0.1,0.1-0.2,0.1-0.3c0-0.1,0-0.1,0-0.2
	c0-0.1,0-0.1,0-0.2l0.3,0.2l0.4-0.6l-4-2.6L30.8,27l1.4,0.9H32l-0.2,0.1c-0.2,0.1-0.4,0.3-0.5,0.4c-0.2,0.3-0.3,0.7-0.1,1.1
	c0.1,0.2,0.2,0.4,0.3,0.5c0.1,0.2,0.3,0.3,0.5,0.4h0.1c0.2,0.1,0.4,0.2,0.6,0.3C33,30.8,33.2,30.9,33.4,30.9z M33.4,30.1
	c-0.1,0-0.3,0-0.4-0.1c-0.1-0.1-0.3-0.2-0.4-0.3h-0.1c-0.1-0.1-0.2-0.2-0.3-0.3c-0.1-0.1-0.2-0.2-0.2-0.3c0-0.1-0.1-0.2-0.1-0.3
	c0-0.1,0-0.2,0.1-0.4c0-0.1,0.1-0.1,0.2-0.2c0.1,0,0.1-0.1,0.2-0.1h0.2c0.1,0,0.1,0,0.2,0L34,29c0,0.1,0.1,0.1,0.1,0.2
	c0,0.1,0,0.1,0,0.2c0,0.1,0,0.1,0,0.2c0,0.1-0.1,0.1-0.1,0.2C34,29.9,33.9,30,33.7,30C33.6,30.1,33.5,30.1,33.4,30.1z M3.2,29.2
	L3.7,29l-0.4-0.8l1.5-0.7c0.2-0.1,0.3-0.2,0.5-0.3c0.1-0.1,0.2-0.2,0.2-0.4c0-0.1,0-0.3,0-0.4c0-0.2-0.1-0.3-0.1-0.5
	c0-0.1-0.1-0.2-0.1-0.2l-0.2-0.2L5,25.2c-0.1-0.1-0.1-0.1-0.2-0.1l-0.4,0.3c0,0,0.1,0.1,0.1,0.1c0,0,0.1,0.1,0.1,0.2l0.1,0.2L4.7,26
	c0,0.1,0.1,0.2,0.1,0.2c0,0.2,0,0.3-0.1,0.4c-0.1,0.1-0.2,0.1-0.3,0.2l-1.5,0.7l-0.5-1.2l-0.5,0.2l0.5,1.2l-0.7,0.4L2,28.8l0.8-0.4
	L3.2,29.2z M35,27.7c0.1,0,0.3,0,0.4-0.1c0.2-0.1,0.4-0.2,0.5-0.3c0.2-0.2,0.3-0.4,0.4-0.6c0.1-0.2,0.1-0.4,0.1-0.7
	c0-0.2-0.1-0.4-0.2-0.6c-0.1-0.2-0.2-0.4-0.4-0.5c-0.2-0.2-0.4-0.3-0.6-0.3h-0.1c-0.2-0.1-0.4-0.1-0.7-0.2c-0.2,0-0.4,0-0.6,0.1
	c-0.2,0.1-0.4,0.2-0.5,0.3c-0.2,0.2-0.3,0.4-0.4,0.6c-0.1,0.2-0.1,0.4-0.1,0.7c0,0.2,0.1,0.4,0.2,0.6c0.1,0.2,0.2,0.4,0.4,0.5
	c0.2,0.2,0.4,0.3,0.6,0.4h0.1c0.2,0.1,0.4,0.1,0.7,0.1C34.9,27.7,34.9,27.7,35,27.7z M35,26.9c-0.1,0-0.1,0-0.2,0
	c-0.1,0-0.3-0.1-0.4-0.1h-0.1c-0.1-0.1-0.3-0.1-0.4-0.2c-0.1-0.1-0.2-0.2-0.3-0.3c-0.1-0.1-0.1-0.2-0.1-0.3c0-0.3,0.1-0.5,0.3-0.7
	c0.1-0.1,0.2-0.1,0.3-0.1c0.1,0,0.3,0,0.4,0c0.1,0,0.3,0.1,0.4,0.1H35c0.1,0.1,0.3,0.1,0.4,0.2c0.1,0.1,0.2,0.2,0.3,0.3
	c0.1,0.1,0.1,0.2,0.1,0.3c0,0.1,0,0.3-0.1,0.4c0,0.1-0.1,0.2-0.2,0.3c-0.1,0.1-0.2,0.1-0.3,0.2C35.1,26.9,35.1,26.9,35,26.9z
	 M2.8,25.5c0.2,0,0.3,0,0.5-0.1h0.1c0.2-0.1,0.4-0.1,0.6-0.3c0.2-0.1,0.3-0.3,0.5-0.4c0.1-0.2,0.2-0.4,0.2-0.6
	c0.1-0.5,0-0.9-0.3-1.3c-0.1-0.2-0.3-0.3-0.5-0.4c-0.2-0.1-0.4-0.2-0.6-0.2c-0.2,0-0.5,0-0.7,0.1H2.5c-0.2,0-0.5,0.1-0.7,0.3
	c-0.2,0.1-0.3,0.3-0.5,0.4c-0.1,0.2-0.2,0.4-0.2,0.6c0,0.2,0,0.5,0,0.7c0,0.2,0.1,0.4,0.3,0.6c0.1,0.2,0.3,0.3,0.5,0.4
	c0.2,0.1,0.4,0.2,0.6,0.2C2.6,25.5,2.7,25.5,2.8,25.5z M2.6,24.7c-0.1,0-0.3,0-0.4-0.1c-0.1,0-0.2-0.1-0.3-0.2
	c-0.1-0.1-0.1-0.2-0.2-0.3c0-0.1,0-0.3,0-0.4c0-0.1,0.1-0.2,0.2-0.3c0.1-0.1,0.2-0.2,0.3-0.2C2.4,23.1,2.5,23,2.6,23h0.1
	c0.1,0,0.3-0.1,0.4-0.1c0.1,0,0.3,0,0.4,0.1c0.1,0,0.2,0.1,0.3,0.2C3.9,23.3,4,23.4,4,23.5c0,0.1,0,0.3,0,0.4c0,0.1-0.1,0.2-0.2,0.3
	c-0.1,0.1-0.2,0.2-0.3,0.2v0c-0.1,0.1-0.3,0.1-0.4,0.1H3C2.9,24.6,2.7,24.7,2.6,24.7z M37.1,24.3l0.2-1.3l0.8,0.1l0.1-0.8l-0.8-0.1
	l0.1-0.8L37,21.4l-0.1,0.8l-1.7-0.3c-0.2,0-0.4,0-0.6,0c-0.2,0-0.3,0.1-0.4,0.2c-0.1,0.1-0.2,0.2-0.3,0.3c-0.1,0.1-0.1,0.3-0.2,0.5
	c0,0.1,0,0.2,0,0.3c0,0.1,0,0.2,0,0.3c0,0.1,0,0.2,0,0.3c0,0.1,0,0.1,0.1,0.2h0.5v-0.3c0-0.1,0-0.1,0-0.2c0-0.1,0-0.1,0-0.2
	c0-0.1,0-0.2,0.1-0.2c0-0.1,0.1-0.1,0.1-0.2c0.1,0,0.1-0.1,0.2-0.1c0.1,0,0.2,0,0.3,0l1.6,0.3l-0.2,1.3L37.1,24.3z M1.2,18.2
	l0.2-0.8L3,17.7c0.2,0,0.4,0,0.6,0c0.2,0,0.3-0.1,0.4-0.2c0.1-0.1,0.2-0.2,0.3-0.3c0.1-0.1,0.1-0.3,0.2-0.4c0-0.1,0-0.2,0-0.3
	c0-0.1,0-0.2,0-0.3c0-0.1,0-0.2,0-0.3c0-0.1,0-0.1-0.1-0.2H3.9c0,0,0,0.1,0,0.2V16v0.2v0.2c0,0.1,0,0.2-0.1,0.2
	c0,0.1-0.1,0.1-0.1,0.2c-0.1,0-0.1,0.1-0.2,0.1c-0.1,0-0.2,0-0.3,0l-1.6-0.3l0.2-1.3l-0.6-0.1l-0.2,1.3l-0.8-0.2L0,17.1l0.8,0.2
	l-0.2,0.8L1.2,18.2z M35.2,17.4c0.2,0,0.3,0,0.5-0.1h0.1c0.2-0.1,0.5-0.1,0.6-0.3c0.2-0.1,0.3-0.3,0.5-0.4c0.1-0.2,0.2-0.4,0.2-0.6
	c0-0.2,0-0.5,0-0.7c-0.1-0.2-0.2-0.4-0.3-0.6c-0.1-0.2-0.3-0.3-0.5-0.4c-0.2-0.1-0.4-0.2-0.6-0.2c-0.2,0-0.5,0-0.7,0.1h0
	c-0.2,0.1-0.4,0.2-0.7,0.3c-0.2,0.1-0.3,0.3-0.5,0.4c-0.1,0.2-0.2,0.4-0.2,0.6c0,0.2,0,0.5,0,0.7c0.1,0.2,0.2,0.4,0.3,0.6
	c0.1,0.2,0.3,0.3,0.5,0.4c0.2,0.1,0.4,0.1,0.6,0.2C35,17.4,35.1,17.4,35.2,17.4z M35,16.7c-0.1,0-0.3,0-0.4-0.1
	c-0.1,0-0.2-0.1-0.3-0.2c-0.1-0.1-0.2-0.2-0.2-0.3c0-0.1,0-0.3,0-0.4c0-0.1,0.1-0.2,0.2-0.3c0.1-0.1,0.2-0.2,0.3-0.2h0
	c0.1-0.1,0.3-0.2,0.4-0.2h0.1c0.1,0,0.3,0,0.4,0c0.1,0,0.3,0,0.4,0.1c0.1,0,0.2,0.1,0.3,0.2c0.1,0.1,0.1,0.2,0.2,0.3
	c0,0.1,0,0.3,0,0.4c0,0.1-0.1,0.2-0.2,0.3c-0.1,0.1-0.2,0.2-0.3,0.2c-0.1,0.1-0.3,0.1-0.4,0.2h-0.1C35.3,16.6,35.2,16.7,35,16.7z
	 M3.8,15.2c0.2,0,0.4,0,0.6-0.1c0.2-0.1,0.4-0.2,0.5-0.3c0.3-0.3,0.5-0.8,0.5-1.3c0-0.2-0.1-0.4-0.2-0.6c-0.1-0.2-0.2-0.4-0.4-0.5
	c-0.2-0.1-0.4-0.3-0.6-0.4H4.2C4,12,3.8,11.9,3.5,11.9c-0.2,0-0.4,0-0.6,0.1c-0.2,0.1-0.4,0.2-0.5,0.3c-0.2,0.2-0.3,0.4-0.4,0.6
	c-0.1,0.2-0.1,0.4-0.1,0.7c0,0.2,0,0.4,0.1,0.6c0.1,0.2,0.2,0.4,0.4,0.5C2.6,14.8,2.8,15,3,15.1h0.1C3.3,15.2,3.5,15.2,3.8,15.2z
	 M33.4,14.6l0.4-0.3l-0.1-0.1L33.6,14c0-0.1-0.1-0.1-0.1-0.2c0-0.1-0.1-0.1-0.1-0.2c0-0.1-0.1-0.2-0.1-0.2c0-0.1,0-0.1,0-0.2
	c0-0.1,0.1-0.1,0.1-0.2c0.1-0.1,0.2-0.1,0.3-0.2l1.5-0.7l0.6,1.2l0.5-0.3l-0.6-1.2l0.8-0.4l-0.3-0.7l-0.8,0.4L35,10.4l-0.5,0.2
	l0.4,0.7l-1.5,0.8c-0.2,0.1-0.3,0.2-0.5,0.3c-0.1,0.1-0.2,0.2-0.2,0.4c0,0.1,0,0.3,0,0.4c0,0.2,0.1,0.3,0.1,0.5l0.1,0.2l0.2,0.2
	c0.1,0.1,0.1,0.1,0.2,0.2C33.2,14.5,33.3,14.5,33.4,14.6z M4,14.5c-0.1,0-0.1,0-0.2,0c-0.1,0-0.3-0.1-0.4-0.1H3.3
	c-0.1,0-0.3-0.1-0.4-0.2c-0.1-0.1-0.2-0.2-0.3-0.3c-0.1-0.1-0.1-0.2-0.1-0.3c0-0.1,0-0.3,0.1-0.4c0-0.1,0.1-0.2,0.2-0.3
	c0.1-0.1,0.2-0.1,0.3-0.2c0.1,0,0.3,0,0.4,0c0.1,0,0.3,0.1,0.4,0.1H4c0.1,0.1,0.3,0.1,0.4,0.2c0.1,0.1,0.2,0.2,0.3,0.3
	c0.1,0.1,0.1,0.2,0.1,0.3c0,0.1,0,0.3-0.1,0.4c0,0.1-0.1,0.2-0.2,0.3c-0.1,0.1-0.2,0.1-0.3,0.1C4.1,14.5,4,14.5,4,14.5z M7,13.3
	l0.4-0.6l-1.3-0.9h0.2l0.2-0.1c0.1,0,0.2-0.1,0.2-0.2c0.1-0.1,0.2-0.2,0.2-0.2C7,11.1,7.1,11,7.1,10.8c0-0.2,0-0.4-0.1-0.6
	C7,10,6.9,9.8,6.7,9.7C6.6,9.5,6.4,9.3,6.2,9.2C6,9.1,5.8,9,5.6,8.9C5.4,8.8,5.2,8.8,5,8.8C4.6,8.8,4.2,9,4,9.3
	C3.9,9.4,3.9,9.5,3.8,9.6c0,0.1-0.1,0.2-0.1,0.3c0,0.1,0,0.1,0,0.2c0,0.1,0,0.1,0,0.2l-0.3-0.2l-0.4,0.6L7,13.3z M5.7,11.5
	C5.6,11.5,5.6,11.5,5.7,11.5l-1.4-0.9c0-0.1-0.1-0.1-0.1-0.2c0-0.1,0-0.1,0-0.2c0-0.1,0-0.1,0-0.2c0-0.1,0.1-0.1,0.1-0.2
	c0.1-0.1,0.2-0.2,0.3-0.2c0.1,0,0.2-0.1,0.3-0.1c0.1,0,0.3,0,0.4,0.1l0.5,0.3C5.9,10,6,10.1,6.1,10.2c0.1,0.1,0.2,0.2,0.2,0.3
	c0,0.1,0.1,0.2,0.1,0.3c0,0.1-0.1,0.2-0.1,0.4c0,0.1-0.1,0.1-0.2,0.2L6,11.5C5.9,11.5,5.8,11.5,5.7,11.5C5.7,11.5,5.7,11.5,5.7,11.5
	z M30.1,9.5L30.2,7l1.9-0.2l-0.7-0.6L30,6.3l-0.5,0.1l1.8-2.2l-0.6-0.5l-3.1,3.8L28.2,8l0.7-0.8L29.5,7l-0.1,1.8L30.1,9.5z
	 M10.4,8.1l0.5-0.4L9.9,2.6L9.3,2.9L10.4,8.1z M27,6.9c0.1,0,0.1,0,0.2,0c0.2,0,0.3-0.1,0.5-0.2c0.1-0.1,0.2-0.2,0.3-0.4L27.3,6
	c0,0.1-0.1,0.1-0.2,0.2c-0.1,0-0.1,0.1-0.2,0.1c-0.1,0-0.2,0-0.3,0c-0.1,0-0.2-0.1-0.3-0.1c-0.1-0.1-0.2-0.1-0.3-0.2
	c-0.1-0.1-0.1-0.2-0.1-0.3c0-0.1,0-0.3,0-0.4c0-0.1,0.1-0.3,0.2-0.4l0.1-0.1c0.1-0.1,0.1-0.2,0.2-0.3c0.1-0.1,0.2-0.2,0.3-0.2
	C26.9,4.1,27,4,27.1,4c0.1,0,0.3,0,0.4,0.1c0.1,0,0.2,0.1,0.2,0.2c0.1,0.1,0.1,0.2,0.1,0.2c0,0.1,0,0.2,0,0.3c0,0.1,0,0.2-0.1,0.3
	l0.6,0.3c0.1-0.2,0.2-0.3,0.2-0.5c0-0.2,0-0.3-0.1-0.5c-0.1-0.2-0.2-0.3-0.3-0.4c-0.1-0.1-0.3-0.3-0.5-0.3c-0.2-0.1-0.4-0.2-0.7-0.2
	c-0.2,0-0.4,0-0.6,0.1c-0.2,0.1-0.4,0.2-0.5,0.3c-0.2,0.2-0.3,0.3-0.4,0.5l-0.1,0.1c-0.1,0.2-0.2,0.4-0.2,0.6c0,0.2,0,0.4,0,0.6
	c0,0.2,0.1,0.4,0.3,0.6c0.1,0.2,0.3,0.3,0.6,0.5c0.2,0.1,0.3,0.1,0.5,0.2C26.8,6.9,26.9,6.9,27,6.9z M13,6.6l0.7-0.2V1L13,1.3V6.6z
	 M24.7,5.9c0-0.1,0-0.2,0-0.3c0-0.1,0-0.3,0.1-0.4l0.4-1.5c0-0.2,0-0.4,0-0.5c0-0.2-0.1-0.3-0.2-0.4c-0.1-0.1-0.2-0.2-0.4-0.3
	c-0.2-0.1-0.3-0.2-0.5-0.2c-0.2-0.1-0.4-0.1-0.6-0.1c-0.2,0-0.3,0-0.5,0.1c-0.1,0.1-0.3,0.1-0.4,0.2c-0.1,0.1-0.2,0.2-0.2,0.3
	L23.2,3c0-0.1,0-0.1,0.1-0.2c0-0.1,0.1-0.1,0.2-0.1c0.1,0,0.1-0.1,0.2,0c0.1,0,0.2,0,0.3,0c0.2,0,0.3,0.1,0.5,0.3
	c0,0.1,0.1,0.1,0.1,0.2c0,0.1,0,0.2,0,0.2l-0.1,0.2l-0.5-0.2c-0.2-0.1-0.4-0.1-0.7-0.1c-0.2,0-0.4,0-0.5,0.1c-0.2,0-0.3,0.1-0.4,0.2
	C22.1,3.8,22,4,22,4.1c0,0.1,0,0.3,0,0.4c0,0.1,0.1,0.3,0.2,0.4c0.1,0.1,0.2,0.2,0.3,0.3c0.2,0.2,0.5,0.2,0.8,0.3c0.1,0,0.2,0,0.3,0
	c0.1,0,0.2,0,0.2-0.1c0.1,0,0.1-0.1,0.2-0.1v0.2c0,0,0,0.1,0,0.1L24.7,5.9z M20.6,5c0.1,0,0.1,0,0.2,0c0.1,0,0.2-0.1,0.3-0.1
	c0.1-0.1,0.2-0.2,0.3-0.3c0.1-0.1,0.2-0.2,0.2-0.4c0.1-0.1,0.1-0.3,0.1-0.4c0-0.1,0.1-0.3,0.1-0.4V3.3c0-0.2,0-0.4,0-0.5
	c0-0.2-0.1-0.3-0.1-0.5c0-0.1-0.1-0.2-0.2-0.3c-0.1-0.1-0.1-0.2-0.2-0.2c-0.1-0.1-0.2-0.1-0.3-0.2c-0.1-0.1-0.3-0.1-0.4-0.1
	c-0.1,0-0.2,0-0.3,0c-0.1,0-0.2,0-0.3,0.1l-0.2,0.1l-0.1,0.1l0.1-1.8L19.1,0l-0.3,4.9h0.7l0.1-0.4c0,0.1,0.1,0.1,0.1,0.1l0.1,0.1
	c0.1,0.1,0.2,0.1,0.3,0.2C20.1,5,20.3,5,20.4,5C20.5,5,20.5,5,20.6,5z M23.6,5c0,0-0.1,0-0.1,0c-0.1,0-0.2,0-0.3,0
	c-0.1,0-0.2-0.1-0.2-0.1l-0.1-0.2c0-0.1-0.1-0.1-0.1-0.2c0-0.1,0-0.1,0-0.2c0-0.1,0.1-0.1,0.1-0.2C22.9,4,23,4,23.1,3.9
	c0.1,0,0.2-0.1,0.3,0c0.1,0,0.3,0,0.4,0.1l0.5,0.1l-0.2,0.6l-0.2,0.1l-0.2,0.1C23.7,5,23.7,5,23.6,5z M20.1,4.4c0,0-0.1,0-0.1,0
	c0,0-0.1-0.1-0.1-0.2c-0.1,0-0.1-0.1-0.1-0.1c0-0.1-0.1-0.1-0.1-0.2l0.1-1.4l0.1-0.1l0.1-0.1c0.1,0,0.1-0.1,0.2-0.1
	c0.1,0,0.2,0,0.3,0l0.2,0c0.1,0,0.1,0.1,0.2,0.1C20.9,2.3,21,2.4,21,2.4c0,0.1,0.1,0.2,0.1,0.3c0,0.1,0,0.2,0,0.3
	c0,0.1,0,0.2-0.1,0.2v0.1c0,0.1,0,0.2,0,0.3c0,0.1,0,0.2-0.1,0.2c0,0.1-0.1,0.2-0.1,0.3c-0.1,0.1-0.1,0.1-0.2,0.2l-0.2,0.1
	c-0.1,0-0.2,0-0.2,0C20.2,4.3,20.1,4.4,20.1,4.4z"/>
<path id="aefe176f-8c2b-41dc-b2b4-a64ccd4863f1" d="M23.9,15.8l1.6,1.7L19.1,24l-6.5-6.5l1.7-1.7l4.9,4.9L23.9,15.8z"/>
</svg>
