<svg xmlns="http://www.w3.org/2000/svg" xmlns:xlink="http://www.w3.org/1999/xlink" width="26.25" height="24.14" viewBox="0 0 26.25 24.14">
  <path d="M12.375,0A12.376,12.376,0,0,0,8.463,24.118c.618.114.818-.269.818-.6v-2.3c-3.442.749-4.159-1.46-4.159-1.46a3.278,3.278,0,0,0-1.375-1.811c-1.123-.768.086-.752.086-.752a2.6,2.6,0,0,1,1.9,1.276,2.634,2.634,0,0,0,3.6,1.028,2.625,2.625,0,0,1,.786-1.654c-2.748-.315-5.638-1.376-5.638-6.116A4.79,4.79,0,0,1,5.753,8.408a4.451,4.451,0,0,1,.121-3.275S6.914,4.8,9.278,6.4a11.729,11.729,0,0,1,6.2,0c2.363-1.6,3.4-1.268,3.4-1.268A4.447,4.447,0,0,1,19,8.408a4.777,4.777,0,0,1,1.274,3.322c0,4.753-2.895,5.8-5.65,6.106a2.958,2.958,0,0,1,.849,2.291v3.4c0,.329.2.716.826.594A12.377,12.377,0,0,0,12.375,0Z"/>
</svg>
