<svg xmlns="http://www.w3.org/2000/svg" xmlns:xlink="http://www.w3.org/1999/xlink" viewBox="0 0 100 60">

<defs>
    <linearGradient id="linear-gradient-logo-light" x1="3.47" y1="77.65" x2="92.7" y2="26.13" gradientUnits="userSpaceOnUse" >

                <stop offset="0%" stop-color="#ff0080">
                    <animate attributeName="stop-color" values="#ff0080; #00D3FF; #ff0080" dur="5s" repeatCount="indefinite"></animate>
                </stop> 

                <stop offset="100%" stop-color="#00D3FF">
                    <animate attributeName="stop-color" values="#00D3FF; #ff0080; #00D3FF" dur="5s" repeatCount="indefinite"></animate>
                </stop>

    </linearGradient> 
</defs>

<g id="Layer_5" data-name="Layer 5">
<path d="M15.36,67.45V80H4.81V21.69H15.36V55l3.19-3.65L29.89,38.92H42.57L27.09,56,44.73,80H31.79L20.14,63ZM61.55,46.7H50.77V38.92H61.55V36.68a18.66,18.66,0,0,1,1.29-7.18,14.14,14.14,0,0,1,3.68-5.23,15.68,15.68,0,0,1,5.81-3.21A25.18,25.18,0,0,1,80,20c.89,0,1.74,0,2.57.09s1.62.15,2.41.25,1.57.21,2.37.34l2.48.42-.68,8.27c-1-.2-2-.38-3.26-.53a35.56,35.56,0,0,0-4.29-.23A14.84,14.84,0,0,0,77,29.2a7,7,0,0,0-3,1.78,6.09,6.09,0,0,0-1.46,2.43,10.62,10.62,0,0,0-.47,3.27v2.24h14.8V46.7H72.14V80H61.55ZM87.29,68.16a7.06,7.06,0,0,1,5.39-2,7.16,7.16,0,0,1,5.37,2,6.87,6.87,0,0,1,2,5A6.58,6.58,0,0,1,98,78a8.24,8.24,0,0,1-10.69,0,6.64,6.64,0,0,1-2-4.89A6.9,6.9,0,0,1,87.29,68.16Z" transform="translate(0 -19.98)" style="fill:url(#linear-gradient-logo-light)"/>
</g>

<g id="Layer_4" data-name="Layer 4">
<path d="M10.55,67.45V80H0V21.69H10.55V55l3.19-3.65L25.09,38.92H37.76L22.28,56,39.92,80H27L15.33,63ZM56.74,46.7H46V38.92H56.74V36.68A18.66,18.66,0,0,1,58,29.5a14.14,14.14,0,0,1,3.68-5.23,15.68,15.68,0,0,1,5.81-3.21A25.21,25.21,0,0,1,75.15,20c.88,0,1.73,0,2.56.09s1.62.15,2.41.25,1.57.21,2.37.34l2.48.42-.68,8.27c-1-.2-2.05-.38-3.26-.53a35.56,35.56,0,0,0-4.29-.23,14.84,14.84,0,0,0-4.52.61,7,7,0,0,0-3,1.78,6.2,6.2,0,0,0-1.46,2.43,10.62,10.62,0,0,0-.47,3.27v2.24h14.8V46.7H67.33V80H56.74ZM82.48,68.16a7.06,7.06,0,0,1,5.39-2,7.16,7.16,0,0,1,5.37,2,6.87,6.87,0,0,1,2,5,6.58,6.58,0,0,1-2,4.91,7.27,7.27,0,0,1-5.33,2,7.19,7.19,0,0,1-5.35-2,6.61,6.61,0,0,1-2-4.89A6.9,6.9,0,0,1,82.48,68.16Z" transform="translate(0 -19.98)" style="fill:#1f003a"/>
</g>

</svg>