<svg xmlns="http://www.w3.org/2000/svg" width="15" height="15" viewBox="0 0 15 15">
  <path id="iconmonstr-weather-2" d="M2.543,8.125H0V6.875H2.543a4.551,4.551,0,0,0,0,1.25Zm1.9-4.57-1.8-1.8-.884.884,1.8,1.8A5.012,5.012,0,0,1,4.439,3.555Zm7.006.884,1.8-1.8-.884-.884-1.8,1.8A5.076,5.076,0,0,1,11.445,4.439ZM7.5,2.5a5.029,5.029,0,0,1,.625.043V0H6.875V2.543A5.029,5.029,0,0,1,7.5,2.5Zm0,10a5.029,5.029,0,0,1-.625-.043V15h1.25V12.457A5.029,5.029,0,0,1,7.5,12.5Zm4.957-5.625a4.551,4.551,0,0,1,0,1.25H15V6.875Zm-1.9,4.57,1.8,1.8.884-.884-1.8-1.8a5.079,5.079,0,0,1-.884.884Zm-7.006-.884-1.8,1.8.884.884,1.8-1.8a5.033,5.033,0,0,1-.884-.884ZM5,7.5A2.5,2.5,0,1,0,7.5,5,2.5,2.5,0,0,0,5,7.5Zm6.25,0A3.75,3.75,0,1,1,7.5,3.75,3.75,3.75,0,0,1,11.25,7.5Z" fill="#0c0c0a"/>
</svg>