<svg id="e83c4fa2-53fd-437d-96cf-4eb6b1cf6032" data-name="Layer 1" xmlns="http://www.w3.org/2000/svg" viewBox="0 0 477.44 460.23">
<path d="M497.41,382.39l22.48,3.37c7.11,1.06,14.22,2.09,21.32,3.17,1.22.19,2.16.33,3.06-1,1.06-1.54,2.7-1.63,4.16-.33a2.81,2.81,0,0,1-.18,4.22c-1.51,1-2.9.83-4.23-.61a5.48,5.48,0,0,0-2.85-1.68c-13.87-2.13-27.77-4.17-41.66-6.22-1.51-.22-2.83-.42-3.84,1.38-.64,1.13-2.17,1.76-3.51,2.78,3.63,13.63,7.3,27.46,11,41.3l-.56.15q-1.33-4.89-2.66-9.78-4-14.93-7.94-29.86c-.34-1.29-.58-2.53-2.32-2.43a.68.68,0,0,1-.45-.17c-2.79-2.62-4.65-.46-6.73,1.21q-28.92,23.35-57.86,46.68a55.45,55.45,0,0,0-5.18,5.54L477,484.44c2.87-.54,5-1.43,7-1.2,3.26.37,5,3.63,4.3,6.82a5.79,5.79,0,0,1-6.68,4.45c-3.05-.53-5.44-3.69-4.64-6.74.46-1.77-.08-2.57-1.35-3.55q-27.12-20.79-54.18-41.64c-2.8-2.16-3.45-1.95-4.56,1.52q-5,15.86-10.07,31.71c-.24.76-.42,1.53-.65,2.39.91.2,1.77.33,2.58.58,2.67.79,4.27,2.71,4.08,5.46a5.13,5.13,0,0,0,1.89,4.34q18,17.93,36,35.94a6.71,6.71,0,0,1,1.73,1.94l-38.85-38.89-8.5,3.47c-1.06,9.44-2.23,19.81-3.41,30.23a12.77,12.77,0,0,1,2.38.78,2.63,2.63,0,0,1,1.12,3.7,2.45,2.45,0,0,1-3.6,1.27,4.07,4.07,0,0,1-1.56-3.25c.82-6.45,2-12.85,2.91-19.29.45-3.08.65-6.19,1-9.28.36-2.89,1.17-5.71-1.75-8.05-.87-.7-.74-2.64-1.13-4.29-3.85.88-7.79,1.76-11.72,2.68-10,2.36-20,4.77-30,7.09a3,3,0,0,0-2.58,2.32,5.29,5.29,0,0,1-4.74,3.85,5.2,5.2,0,0,1-5.5-2.64,3.53,3.53,0,0,0-3.22-1.92l-34.6-3c-5.73-.49-11.49-.75-17.17-1.56a9.26,9.26,0,0,0-8.27,2.49l4.84,13.45q5.7,15.89,11.38,31.78c.44,1.22.76,2.22,2.45,2.38a2.78,2.78,0,1,1-1.53,5.33c-1.63-.53-2.13-2.17-1.64-3.91a6.25,6.25,0,0,0,.07-3.53c-4.74-13.47-9.62-26.9-14.39-40.36-1.15-3.27-2-6.68-6.89-6.54l-30.06,27.68-.41-.36c.47-.5.93-1,1.44-1.5q13.65-12.6,27.34-25.17c1.12-1,1.68-1.77.95-3.4a5.63,5.63,0,0,1-.12-3.92,3.7,3.7,0,0,0-.49-3.71q-12.93-20.89-25.8-41.83c-1.67-2.7-6.18-3.83-8.86-2.2-11.6,7.06-23.22,14.09-34.77,21.22a5.69,5.69,0,0,0-2.12,2.81c-1,2.74-3.18,4.61-6.13,4.35a2.42,2.42,0,0,0-2.75,1.59q-8,15-16.06,30a2.5,2.5,0,0,0,.28,3.33,5.67,5.67,0,0,1-.46,7.45,5.83,5.83,0,0,1-9.63-6.18,6,6,0,0,1,6.57-3.63,2.75,2.75,0,0,0,2.29-.7c5.81-10.65,11.52-21.36,17.21-32-1.28-2.31-2.91-3-5.49-2.71-10.93,1.43-21.88,2.6-32.81,3.94a4,4,0,0,0-2,1.32c-1.32,1.35-3.33,1.56-4.43.23a2.73,2.73,0,0,1,.21-4.06c1.3-1.25,3-.86,4.38.63a3,3,0,0,0,2.2,1c11.66-1.24,23.31-2.59,34.9-3.91.95-3.46,0-5.92-2.47-8.5-11.42-12-22.6-24.16-33.84-36.3-.93-1-1.7-1.62-3.26-1.17a5.53,5.53,0,0,1-6.52-3.16,5.88,5.88,0,0,1,1.56-7,5.74,5.74,0,0,1,7.29-.07c.5.38,1,.82,1.6,1.37l72.2-45.53-.2-.82a10.83,10.83,0,0,0-2.09-.25q-13.74,1.05-27.46,2.16-16.35,1.32-32.7,2.68c-4.38.36-8.76.67-13.13,1.07a2.64,2.64,0,0,0-1.78.89c-3.45,5.15-6.16,5.61-10.92,1.54l-19.59,10.28c-7.21,3.78-14.41,7.59-21.64,11.32-1.28.65-1.88,1.27-1.77,2.88a5.51,5.51,0,0,1-5.81,6.11A5.74,5.74,0,1,1,93,387.16c1.38.09,2.32.1,3-1.42q14.64-31.1,29.4-62.13c.13-.28.21-.58.39-1.11-3-.07-5.65-.73-6.79-3.81s0-5.27,2.41-7.36c-3.63-4.05-7.18-8-10.75-12-4.65-5.17-9.27-10.36-14-15.45a6.4,6.4,0,0,0-3.11-1.57c-1.74-.39-3-1.69-2.68-3.34a2.75,2.75,0,0,1,3.08-2.4,2.54,2.54,0,0,1,2.41,3.38c-.56,1.69.07,2.62,1.08,3.73q11.59,12.79,23.13,25.64c.53.58,1.09,1.36,1.76,1.52,1.61.38,2.69-.14,2.83-2.12.47-6.86,1-13.71,1.6-20.56q1.6-20.07,3.22-40.14c.19-2.31.39-4.62.54-6.93a4.57,4.57,0,0,0-3.95-4.71c-9.28-1-18.55-2.11-27.84-3.07a3.89,3.89,0,0,0-2.4.87c-1.53,1.15-3.47,1.15-4.44-.27a2.67,2.67,0,0,1,.66-4c1.44-1.11,3.11-.51,4.28,1.09a4.15,4.15,0,0,0,2.47,1.61q13.65,1.71,27.35,3.15c.8.08,1.69-.62,2.52-1s1.76-.85,2.66-1.22c1.09-.45,2.49-.54,3.27-1.28q17.44-16.62,34.75-33.39c1.5-1.46.56-4.19-1.8-5.19-7.34-3.13-14.7-6.21-22-9.32q-16.63-7.05-33.26-14.12c-1.23-.53-2-.67-3,.62a5.55,5.55,0,0,1-7.32,1.39,5.83,5.83,0,0,1-2.64-6.8,5.7,5.7,0,0,1,6-4,5.62,5.62,0,0,1,5.26,5.55c.06,1.22.16,2,1.49,2.55q27.92,11.72,55.78,23.57a4.85,4.85,0,0,0,.79.22,20.07,20.07,0,0,1,2.68-3.91,5,5,0,0,1,3.44-1.29c2.05.19,2.94-.72,3.87-2.32q7.47-12.85,15.12-25.59a2.48,2.48,0,0,0-.09-3.15,7.2,7.2,0,0,1-1-4.48,2.72,2.72,0,0,0-1-2.83c-5.56-4.69-11.06-9.45-16.66-14.09a3.54,3.54,0,0,0-2.63-.47c-1.82.34-3.41-.33-3.82-1.92a2.87,2.87,0,0,1,2.32-3.57c1.79-.3,3,.83,3.27,2.89a3.19,3.19,0,0,0,.7,1.87c6.09,5.28,12.24,10.5,18.46,15.82,2.63-2.44,5.39-3.23,8.56-1.3.31.19,1.22-.17,1.59-.54q9-9.12,17.93-18.35a3.55,3.55,0,0,0,.57-2.1c.12-1.9,1-3,3-3.06a2.78,2.78,0,0,1,2.74,3.23,2.66,2.66,0,0,1-3.51,2.29,2.35,2.35,0,0,0-2.85.86c-5.54,5.65-11.07,11.31-16.67,16.9-1.15,1.14-1.72,2.12-.82,3.71a10.89,10.89,0,0,1,.6,3c3.21-.18,6.46-.34,9.71-.56l47.08-3.18c10-.68,20.07-1.37,30.11-2,1.43-.09,2-.41,2.6-2,.69-1.9,2.51-3.38,4.12-5.38l-24-40.24c-2.22.45-4.09,1.27-5.84,1.09-3.44-.36-5.37-3.64-4.65-7.11a5.75,5.75,0,0,1,6.79-4.23,5.65,5.65,0,0,1,4.4,7.27,4.22,4.22,0,0,0,.54,3.76q11.35,18.9,22.63,37.85c.51.86,1.11,1.66,1.94,2.88.59-1.16,1-1.88,1.34-2.65q10.25-23.63,20.48-47.24c.59-1.35,1.08-2.42-.14-3.85a2.39,2.39,0,0,1,.75-3.73c1.44-.87,3.32-.85,3.93.8,1.09,3,3.57,4.63,5.55,6.7q20.86,21.69,41.9,43.21a5,5,0,0,0,2.09,1.38q-1.59-5.23-3.19-10.47c-2.1-6.87-4.15-13.75-6.33-20.59a5.1,5.1,0,0,0-1.91-2.38,2.94,2.94,0,0,1-1.22-4.11,2.75,2.75,0,0,1,4.13-.84,2.63,2.63,0,0,1,.34,4.16c-1.18,1-1,1.93-.61,3.14,3.15,10.21,6.25,20.43,9.3,30.43l6.79,1c6.34-6.11,13.17-12.38,19.6-19a14,14,0,0,1,10.25-4.5c7.82-.31,15.62-1,23.43-1.5a2.78,2.78,0,0,0,2.95-2.11,5.58,5.58,0,0,1,6.6-3.49,5.87,5.87,0,0,1,4.53,5.76,5.59,5.59,0,0,1-4.63,5.59c-2.89.55-5.7-.74-6.54-3.51-.56-1.84-1.55-1.84-3-1.73-8.68.65-17.36,1.29-26,1.85a7.38,7.38,0,0,0-5,2.26c-6.83,6.74-13.77,13.35-20.72,20-.94.9-1.4,1.63-.54,2.82a3,3,0,0,1,.5,1.58c.06,1.54.84,2.08,2.3,2.47,13.41,3.56,26.8,7.23,40.19,10.85,4.85,1.32,9.71,2.57,14.54,3.94a2.45,2.45,0,0,0,2.91-.71,5.73,5.73,0,0,1,7.43-.89c2.24,1.46,3,4.09,2.23,7a3.09,3.09,0,0,0,.4,2.48q20.1,21.74,40.33,43.37a4.82,4.82,0,0,0,.68.55c2.52-1,3.47-2.46,2.77-5.33-1.15-4.72-1.68-9.59-2.62-14.36a3,3,0,0,0-1.7-1.77c-1.91-.78-2.83-2.17-2.14-3.85a2.68,2.68,0,0,1,3.72-1.61c1.65.58,2.07,2.37,1.32,4.21a6.13,6.13,0,0,0-.45,3.1c.78,5.05,1.74,10.07,2.57,15.11.25,1.52.53,2.52,2.51,2.71a5.87,5.87,0,0,1,3.63,2.36c1,1.37,1.75,1.41,3.14,1A157.33,157.33,0,0,1,525,208.16c-.72.26-1.44.55-2.17.78q-7.2,2.2-14.42,4.38c-1.16.34-1.85.76-2,2.21s-.94,2.64-1.61,4.35l16.14,28.74c.55-.17,1.12-.54,1.54-.42,1.13.32,2.61.57,3.18,1.39a3.2,3.2,0,0,1-.32,3.14c-.74.68-2.25.64-3.43.66s-2.59-.6-3.73-.32c-12.7,3.12-25.37,6.35-38,9.56-2.94.74-3.69,2.87-1.8,5.36,5.16,6.82,10.36,13.62,15.54,20.42q4.65,6.1,9.3,12.21c1.4,1.85,5.38,2.45,7.18,1,7.5-6,15-12,22.48-18a2,2,0,0,0,.78-2.6,2.73,2.73,0,0,1,2.35-3.69,2.67,2.67,0,0,1,3.11,2.61c.13,1.93-.91,2.92-2.88,3a4,4,0,0,0-2.2.61c-8,6.35-16,12.77-23.52,18.82.71,2.13,1.24,4,2,5.76a3.69,3.69,0,0,0,1.54,1.64q20.34,11.49,40.74,22.86a6.21,6.21,0,0,0,2.93.62c3.32,0,5.68,1.57,6.31,4.38a5.83,5.83,0,0,1-10.41,4.77,6.12,6.12,0,0,1,.78-7.67c.21-.24.43-.46.92-1l-41.89-23.55c-2.54,1.35-4.65,2.38-6.66,3.58a2.73,2.73,0,0,0-1,1.72q-5.16,26.32-10.22,52.65c-.24,1.26-.44,2.52-.74,3.76-.53,2.18-1,4.16,1.14,6C496.76,378.81,496.82,380.6,497.41,382.39ZM229.68,361.46,207,375.77q-23.7,14.94-47.41,29.88c-1.12.7-2,1.27-1.76,3s1.51,1.65,2.58,1.92c2.09.52,4.2.92,6.31,1.38q37.14,8.14,74.28,16.25c.63.13,1.7.21,1.93-.12,2.62-3.79,5.87-4,9.72-1.69l44.92-66.79-3.68-6.27-53.43,2.93c.59,3,0,5.68-2.91,7.18S232,363.93,229.68,361.46Zm6.8-8.93c-.36-4.95-.6-9.57-1-14.18q-1.76-18-3.72-36a4.76,4.76,0,0,0-1.8-3.05c-9.86-6.8-19.81-13.47-29.72-20.22a3.52,3.52,0,0,0-3.48-.51,6.58,6.58,0,0,1-4.34-.13,3.54,3.54,0,0,0-3.69.31q-21.47,12.66-43,25.24l-15.64,9.2-.33,7.24c.49.2,1.42.61,2.38,1l54.92,19.75q20,7.2,40.08,14.38c.73.26,2.13.45,2.32.13C231,353.06,233.36,352.31,236.48,352.53ZM133.22,239.72c-.36-.2-.14-.08.07,0q27.77,14.58,55.53,29.15c.46.24,1.28.48,1.54.26,2.29-2,4.88-2,7.54-1.1.47-.81.84-1.42,1.18-2.05q17.65-32.38,35.27-64.81a54.76,54.76,0,0,0,2.53-6.65c-1.42,0-2.2,0-3,0-11.89.28-23.79.59-35.68.86-4.63.11-9.27.06-13.9.3a6.38,6.38,0,0,0-3.94,1.43c-2.18,2.23-4.64,3.14-7.51,1.76a2,2,0,0,0-2.67.53q-17.48,16.94-35,33.85a4.53,4.53,0,0,0-.95,2C133.9,236.59,133.64,238,133.22,239.72ZM357.54,492.3a9.25,9.25,0,0,0,1.13-.12c13.72-3.25,27.46-6.45,41.16-9.81a8.43,8.43,0,0,0,6.07-5.71c2.33-7,4.49-14,6.7-21,1.39-4.38,2.77-8.77,4.22-13.39-3.41-.1-6-1.23-6.77-4.51a2.75,2.75,0,0,0-2.47-2.32q-21.69-5.39-43.36-10.87c-4.69-1.17-9.38-2.3-13.6-3.33-1.35,1.43-2.18,3-3.44,3.48-1.91.81-2,2-2,3.7.57,15.48,1.05,31,1.58,46.45.16,4.42.39,8.83.59,13.34C352,486.36,355,486.64,357.54,492.3Zm.94-182a21.24,21.24,0,0,1-4-1.94c-1.55-1.23-2.61-1.14-4.1.23q-21.74,20.07-43.6,40a2.76,2.76,0,0,0-1.06,3.26,5.76,5.76,0,0,1-.57,4.3c-1.06,1.54-.73,2.44.13,3.77q17.16,26.4,34.24,52.87c.87,1.35,1.52,2.05,3.38,1.44,1.47-.49,2.12-.95,2.19-2.5s.43-3.16.64-4.74q2.75-20.76,5.48-41.53,2.77-21,5.56-42C357.36,319.05,357.92,314.63,358.48,310.32Zm90.11-141.54c-2.48-1.78-4.46-1.42-6.41.55a40.17,40.17,0,0,1-4,3.11l-47.76,37c-.9.7-1.94,1.16-1.5,2.83a2.89,2.89,0,0,0,2.86,2.47c4.43.57,8.84,1.28,13.26,1.93,8.05,1.17,16.1,2.36,24.15,3.49a20.15,20.15,0,0,0,3.48-.21c11.32,11.63,23.1,23.69,34.83,35.8,1.91,2,3.67,4,7.09,3.24q-11.26-45.55-22.5-91c-2.09,0-2.89.89-3.41,2.6-4.7,15.33-9.5,30.62-14.28,45.93-.25.78-.55,1.56-.82,2.33l-.54-.17Q440.85,193.65,448.59,168.78ZM408.83,327.34c-3.4-.58-5.16-2.23-5.86-5.14a2.72,2.72,0,0,0-1.68-1.56c-13.13-3.64-26.28-7.19-39.42-10.79-1.87-.51-2.74,0-3,2-1.76,13.85-3.59,27.69-5.41,41.54s-3.71,27.84-5.55,41.76q-1.14,8.67-2.19,17.34a4.8,4.8,0,0,0,.42,1.62,14,14,0,0,0,1.51-.86,3.19,3.19,0,0,0,.56-.76Q375.11,374.75,402,337C404.22,333.89,406.4,330.77,408.83,327.34ZM383.15,207.87c-1.24-19.16-2.48-38.12-3.67-57.09a1.92,1.92,0,0,0-1.72-2.08,5.28,5.28,0,0,1-4.15-3.9c-.34-1.28-1-1.46-2.28-1.38-20.86,1.26-41.73,2.44-62.59,3.71-1,.06-2.8.56-2.92,1.13-.34,1.62-1.26,3.28.93,5,14.13,10.84,28.09,21.91,42.1,32.9q14.23,11.18,28.45,22.35c1.16.92,2.12,1.56,3.5.36A8.48,8.48,0,0,1,383.15,207.87ZM189,269.75l-57.75-30.29q-2.87,36-5.63,70.71c2.59,3.29,4.85,2.1,7.44.56,18.19-10.78,36.45-21.44,54.69-32.15.8-.47,1.55-1,1.75-1.15C189.31,274.72,189.17,272.56,189,269.75Zm99.32,219.06,57.08,5c.43-2.21,1.17-4.21,1.13-6.2-.19-9.5-.59-19-.91-28.49-.36-10.54-.71-21.07-1.12-31.6a2.6,2.6,0,0,0-.9-1.92,28,28,0,0,0-4-1.61c-.42.47-.92,1.09-1.46,1.67l-16.58,17.95q-16.83,18.21-33.63,36.45a3.47,3.47,0,0,0-1,2.33C287.17,484.4,287.75,486.34,288.31,488.81Zm156-321.91c-.4-1.58-1.1-2.92-1-4.15.25-2.15-.77-2.67-2.52-3.14q-25.77-6.9-51.5-13.9c-1.44-.39-2.9-.7-3.78-.92-1.59,1.44-2.64,2.88-4.05,3.53s-1.55,1.52-1.46,2.79q.93,13.39,1.81,26.78c.64,9.57,1.26,19.14,2,28.7a2.36,2.36,0,0,0,1,1.59,40,40,0,0,0,3.71,1.92ZM327.63,89.49c-4.53,1-5.21,4.61-6.57,7.72q-6.15,14.16-12.27,28.32l-7.33,16.95c1.17,1,2.43,1.63,3,2.66.91,1.59,2.13,1.61,3.62,1.49q5.59-.47,11.21-.79c16.16-1,32.32-2,48.49-2.77,3.29-.16,6-.41,7.11-4.06,0-.14.06-.29.14-.65Zm-29.81,65.3c-4.52,23.1-9.09,46.46-13.55,69.2,1.75,1.42,3.26,2.19,4.08,3.43s1.82,1.43,3.19,1.2c6.52-1.1,13.06-2.12,19.6-3.18L338.91,221l-34.29-67.82ZM294.63,152,239.3,194c13,11.57,26.09,22.44,38.81,33.5,1.17-.87,2-1.93,3-2.11,2.31-.44,2.67-2,3-3.87q6.22-32.19,12.61-64.35C297.18,154.91,297.28,153.16,294.63,152ZM152.56,365c.69,0,1.16,0,1.63,0q18.74-1.58,37.45-3.16c11.37-.95,22.75-1.83,34.11-2.82a12.58,12.58,0,0,0,3.18-1.16,14.55,14.55,0,0,0-2.91-1.93q-34.74-12.59-69.52-25.05c-8.85-3.18-17.69-6.39-26.56-9.52a3.29,3.29,0,0,0-2.33.29c-.3.16-.39,1.32-.15,1.82q8.24,17.28,16.59,34.52c.24.47.9,1.1,1.31,1.07C149.57,358.75,151.78,360.86,152.56,365Zm90.84,69.44a8.14,8.14,0,0,1-.82-2.64c.19-2.45-1.26-2.92-3.23-3.35q-32.26-7-64.49-14.07l-16.68-3.65-2.34,3.65L194,455.44c4.65-3.61,7.28-3,11.2,2.29ZM434.19,329.59c2.51-.92,4.84-1.11,6.76.6a2.64,2.64,0,0,0,3.2.46q17.81-7,35.65-13.9c1.41-.55,1.92-1.09,1.64-2.77-1.63-9.68-3.08-19.39-4.6-29.08-.77-4.87-1.58-9.73-2.35-14.52-1.51,0-2.87.31-4-.08-1.61-.54-2.49,0-3.51,1.09-2.89,3-5.87,5.89-8.82,8.81q-15.24,15.1-30.44,30.25a2.83,2.83,0,0,0-.71,2.42C429.27,318.4,431.7,323.86,434.19,329.59Zm-129,19.61q22.65-20.79,45.89-42.11c-1.08-.35-1.67-.57-2.27-.73C330,301.25,311.23,296.19,292.48,291a6.26,6.26,0,0,0-6.23,1.13q2.69,11.19,5.35,22.35c2.45,10.25,4.86,20.5,7.37,30.73a3.91,3.91,0,0,0,1.6,2.24A31.5,31.5,0,0,0,305.17,349.2ZM388.68,217c-.91,1.19-2.51,1.59-1.63,3.61q10.89,24.9,21.58,49.89a2,2,0,0,0,2.57,1.38c16.66-2.37,33.32-4.84,50-6.92,3.5-.44,5.5-1.6,6.3-5.09Zm97.63,160.23-11.41-9.63q-16-13.51-32.07-27c-.61-.51-1.73-1.2-2.17-1a7.11,7.11,0,0,1-6.72,0c-.22.19-.31.22-.34.29q-9,18.9-18,37.83a2.24,2.24,0,0,0,.09,1.72c.79,1.59,1.72,3.12,2.81,5.06L485,382ZM260,241.42c0-.47.08-.65,0-.77q-9.36-20.09-18.8-40.12a2.93,2.93,0,0,0-1.78-1.07,23.45,23.45,0,0,0-3.07-.42c-.43.75-.88,1.5-1.3,2.27Q217.56,233.5,200,265.66c-1.24,2.27-1.56,4,.76,5.79C220.49,261.45,240.32,251.4,260,241.42ZM296,348.9c-.66-.55-1.2-1-1.77-1.46L260.83,321.2c-8.42-6.62-16.82-13.26-25.27-19.83a10.36,10.36,0,0,0-2.72-1.07,12.34,12.34,0,0,0-.33,2.6c.28,3.5.71,7,1,10.5q1.74,19,3.46,37.94a4.85,4.85,0,0,0,4.58,3.86l14.13-.49c12-.43,24.09-.55,36-2.41A4.72,4.72,0,0,0,296,348.9Zm-95-76.82.1.67,78.77,15.47c-.27-2.62,0-5.09-.83-7-5.62-12.43-11.51-24.73-17.31-37.08-.33-.69-.71-1.35-1.16-2.2Zm-19.41-79.81,108.25-41.69a51.24,51.24,0,0,0-9.35,0l-40.61,2.73c-11.23.76-22.46,1.48-33.68,2.33a4.45,4.45,0,0,0-2.63,1.53c-1.64,1.84-3.63,2.85-5.94,2.2-1.7-.48-2.26.17-3,1.4-1.49,2.65-3.09,5.22-4.64,7.84-3.89,6.59-7.77,13.18-11.59,19.68ZM349.11,415.9l.34.78,63.62-15.59c-.48-3.3-1-6.14-1.26-9a2.78,2.78,0,0,0-2.19-2.86,5.5,5.5,0,0,1-3.45-6.39,5.7,5.7,0,0,1,5.77-4.72c.85,0,1.69.16,2.62.25q9.1-19.26,18.12-38.37a4.84,4.84,0,0,0,.13-1.76l-.56-.2Zm-45.68-57.44-.74.15q-5.62,32.65-11.25,65.34a9.57,9.57,0,0,0,1,.08q22.23-2.59,44.44-5.19a3.42,3.42,0,0,0,2.31-5.45l-34.4-53.06C304.35,359.69,303.88,359.08,303.43,358.46Zm122.43-46.28c-3.06,3.08-5.85,5.92-8.68,8.72-2,2-4,3.86-6,5.76a18.8,18.8,0,0,0-2.61,2.31q-30,41.94-59.81,83.93c-.43.6-.79,1.27-1.18,1.9l.51.55a12.28,12.28,0,0,0,1.85-1.21q39.81-37.23,79.63-74.48c1.44-1.35,2.78-2.5,2-4.85a3.53,3.53,0,0,1,.75-2.9c1.47-1.58.94-2.94.18-4.54-1.16-2.45-2.14-5-3.22-7.48S427.1,315,425.86,312.18Zm72.64-91.74c-2.58-1.53-4-3.6-3.4-6.44a3.93,3.93,0,0,0-1.33-3.94q-18.9-20.22-37.72-40.52c-.9-1-1.64-2.08-2.46-3.13l-1,.68q11.23,45.48,22.48,91l.64.08ZM366,278.1c-.25-1.85-.07-3.65-.75-5C357.2,257,349.07,241,341,225c-.52-1-1.11-2-1.85-3.4L313.27,257c9.2,8.15,18.17,16.09,27.17,24a2.45,2.45,0,0,0,1.74.49C349.92,280.39,357.65,279.28,366,278.1ZM298.8,348.34c-.16-1.28-.18-1.59-.25-1.9q-6.32-26.54-12.7-53.06c-.17-.7-1.13-1.34-1.87-1.75-1.84-1-3.76-.7-5.76-.3-9.45,1.91-18.93,3.7-28.4,5.56-4.8.94-9.6,1.93-14.75,3,.65.62,1,1,1.33,1.25q29.47,23.19,59,46.35C296.12,348,297.33,348,298.8,348.34Zm7.6-194.64-.41.44c.21.5.39,1,.63,1.5q16,31.71,32.06,63.44c.79,1.58,1.78,1.7,3.26,1.45,5.74-1,11.49-1.87,17.23-2.8,6.11-1,12.23-2,17.5-2.87,3.58-4.15.51-5.68-1.9-7.56q-30.37-23.79-60.69-47.61C311.52,157.68,309,155.7,306.4,153.7ZM281.88,479.62c4,1.65,4,1.65,6.4-1q24.54-26.56,49.09-53.14c2.32-2.5,2.34-3,.47-6.2-14.14,1.69-28.31,3.35-42.47,5.08-4.12.5-4.08.58-4.79,4.66q-3.22,18.73-6.5,37.48C283.32,470.9,282.6,475.29,281.88,479.62ZM442.26,339.17c.19.17.65.6,1.14,1,13.93,11.75,27.92,23.42,41.72,35.31,2,1.75,3.4.6,4.83-.09.58-.29.8-2,.65-3q-3.69-24-7.53-48c-.4-2.47-.86-4.93-1.33-7.66l-38.4,15C442.94,334.42,442.64,336.55,442.26,339.17Zm-260.69-144c1.18,0,2.29,0,3.4,0,17.08-.45,34.16-.87,51.23-1.41a7.66,7.66,0,0,0,4.1-1.38q25.09-18.88,50.07-37.91c1.14-.87,2.33-1.7,3.4-2.65.32-.28.33-.91.48-1.39a7.6,7.6,0,0,0-1.46-.26,3.51,3.51,0,0,0-1.12.4L228.27,175,183.4,192.26C182.21,192.72,180.81,193,181.57,195.15ZM485.45,384.66l-.28-.54L414,401.56a14,14,0,0,0,0,1.61c1.18,8.46,2.35,16.92,3.57,25.37a5.44,5.44,0,0,0,.72,2.44c1.16,1.54,2.52,2.93,4,4.58ZM301.87,359.54l-.59-.8c-1.19.6-2.86.88-3.52,1.85q-21.93,32.31-43.61,64.78a8.19,8.19,0,0,0-.7,2.55,10.83,10.83,0,0,0,2.66.39c10.53-1.2,21.06-2.53,31.6-3.63,2.32-.25,3.22-1.07,3.6-3.36,2.24-13.62,4.63-27.21,7-40.8Q300.08,370,301.87,359.54ZM98,390l43.1-22.62c-1.11-3.41.15-6,2.86-8l-17.44-36.17c-.6,1.12-1,1.8-1.34,2.51Q111,355.55,96.8,385.39C95.87,387.32,95.92,388.62,98,390Zm242-168.46,26.32,52c1-.78,1.73-1.69,2.56-1.85,2.44-.45,2.67-2.22,3.08-4.15,2.12-9.91,4.34-19.8,6.5-29.7,1.31-6,2.58-12,3.8-17.64-1.32-1.08-2.84-1.72-3.3-2.81-.94-2.22-2.45-1.82-4.1-1.56q-8.85,1.41-17.72,2.84C351.5,219.56,345.93,220.49,339.94,221.49Zm69.67,51.23,16.62,38.47,41.19-42.44-2-3.77ZM277.68,481.46c3-.5,3.67-2.4,4.08-4.91,2.06-12.59,4.31-25.15,6.48-37.73.78-4.52,1.52-9.05,2.33-13.93l-36.45,4.3a6.89,6.89,0,0,1-4.16,7.29Zm98.57-200.28c9.45,11.16,19,22.5,28.67,33.79a2.8,2.8,0,0,0,2.14.78c4.29-.57,6.34.75,7.53,5a11.18,11.18,0,0,0,.78,1.44c3.27-3.42,6.35-6.55,9.28-9.81a2.81,2.81,0,0,0,.28-2.44c-5-11.82-10.16-23.59-15.2-35.39-.62-1.47-1.39-1.72-2.92-1.49-8.36,1.26-16.72,2.46-25.11,3.48C378.89,276.91,376.5,277.32,376.25,281.18Zm36.9,120.57-62.91,15.41c-.9,3.14.89,3.61,2.92,4.1,6.21,1.47,12.39,3.05,18.57,4.6q18.11,4.51,36.21,9c.64.15,1.89,0,2-.3,1.26-3.12,3.73-4.16,7.14-4.21C415.79,420.83,414.49,411.47,413.15,401.75ZM375.51,281.4c-2.78,1.36-5.78,2.09-7.8-.42-1.86-2.33-3.73-2.07-6-1.6-1.64.34-3.33.43-5,.66l-14.33,2c.09.43.07.64.17.72,6.28,5.43,12.5,10.93,18.89,16.22,2.67,2.21,3.48,5.62,1.48,8.46l-1.2,1.69,41.18,11.16c.36-.79.45-1.35.77-1.64,2.07-1.84.87-3.16-.48-4.73-6.26-7.27-12.43-14.62-18.63-21.94C381.55,288.49,378.55,285,375.51,281.4Zm2.05-4.88,30.69-4.27a3.59,3.59,0,0,0,0-.9q-10.89-25.29-21.84-50.55a2.14,2.14,0,0,0-1.71-1.08,3.47,3.47,0,0,0-1.92,1.32,4.49,4.49,0,0,0-.48,1.83q-3.78,17.3-7.55,34.61c-1,4.41-1.89,8.84-2.87,13.4C375.25,271.4,376.84,273.44,377.56,276.52ZM504.1,220.08a18.59,18.59,0,0,0-3.16.56,5.22,5.22,0,0,0-2.62,1.51q-11.08,18.09-21.93,36.32a3.26,3.26,0,0,0,.28,2.87,2.84,2.84,0,0,0,2.5.76c13.08-3.21,26.15-6.52,39.21-9.83,2.39-.6,2.83-1.56,1.66-3.81-1.07-2.05-2.24-4.05-3.38-6.07Q510.38,231.25,504.1,220.08Zm-223.25,70c-1.35-1.46-75.32-16.48-80.09-16.48-.53,1.3-1.06,2.59-1.61,4,10.18,6.88,20.33,13.67,30.37,20.61a6.38,6.38,0,0,0,5.32,1c11.25-2.25,22.51-4.44,33.77-6.66C272.64,291.8,276.66,291,280.85,290.13Zm188.43-30.54.28-.62a3.92,3.92,0,0,0-.48-.76Q451.35,240,433.57,221.84A2.94,2.94,0,0,0,432,221c-3.15-.46-6.32-.79-9.47-1.24-10.34-1.5-20.68-3-31-4.51a7.51,7.51,0,0,0-2.37.45,7.5,7.5,0,0,0,1.5,1.57Q428.8,238.1,467,258.83A13.09,13.09,0,0,0,469.28,259.59Zm-181-24.74q12,10.62,24.47,21.64c8.46-11.6,16.7-22.88,25.33-34.72L331,222.89c-13.29,2.12-26.59,4.22-39.87,6.41a2.75,2.75,0,0,0-1.76,1.46A27.09,27.09,0,0,0,288.3,234.85Zm3,50.67a5.33,5.33,0,0,0,.77-.67c6.47-8.83,12.91-17.67,19.4-26.48a1.47,1.47,0,0,0-.28-2.39c-7.55-6.65-15-13.35-22.62-20a2.41,2.41,0,0,0-1.86-.4,24.93,24.93,0,0,0-3.37,1.2q.94,21.47,1.9,43.16C288.55,280.45,290.52,282.18,291.26,285.52Zm208.87,24c-5.22,2-10.83,4.28-16.48,6.42-1.46.55-1.07,1.48-.9,2.51,1.37,8.67,2.71,17.33,4.08,26q2.32,14.64,4.72,29.28a10.18,10.18,0,0,0,1.2,2.4,9,9,0,0,0,.75-1.23q5.82-29.81,11.57-59.62a2.62,2.62,0,0,0-.77-1.92C503.13,312.12,501.8,311,500.13,309.51ZM358.38,297.85c-5.54-4.93-10.71-9.43-15.76-14.06a5,5,0,0,0-4.57-1.2c-9.94,1.44-19.88,2.79-29.82,4.17l-17.61,2.48a3.64,3.64,0,0,0,1.9,1.11l42,11.42c5.22,1.42,10.44,2.87,15.67,4.26.94.25,2.46.74,2.33-.91C352.17,301,354.17,298.89,358.38,297.85ZM312.86,257.5l-22.15,30.37.54.61,48.91-6.78Zm164.39,10.23c-2.36,1.12-2.09,2.86-1.8,4.67q2.35,14.78,4.67,29.56c.71,4.47,1.45,8.93,2.23,13.75,6.06-2.35,11.83-4.58,17.59-6.86a2.11,2.11,0,0,0,.86-1c.83-1.82,1.6-3.65,2.54-5.82Zm-216-26.18c6.44,13.74,12.75,27.19,19.14,40.8.73-.54,1.12-1,1.61-1.16,2.58-.7,2.66-2.51,2.49-4.75-.38-4.93-.54-9.87-.76-14.81-.38-8.36-.73-16.72-1.07-24.67l-5-3.73ZM413.68,401l71.65-17.55-.13-.69c-.55,0-1.1,0-1.65,0L449.6,384c-9.81.37-19.61.71-29.41,1.12a4.91,4.91,0,0,0-2.79.8c-1.63,1.36-3,3-5.06,5.05C412.68,393.52,413.14,397,413.68,401ZM261.15,240.86c4.85-2.47,9.62-4.87,14.37-7.3,3.07-1.56,3.42-4.41.78-6.68q-16.46-14.15-33-28.26c-.45-.38-1-.68-1.5-1.05C241.26,199.29,256.29,232.83,261.15,240.86Z" transform="translate(-86.65 -85.07)"/>
</svg>