<svg id="Component_4_1" data-name="Component 4 – 1" xmlns="http://www.w3.org/2000/svg" xmlns:xlink="http://www.w3.org/1999/xlink" width="51.123" height="32.516" viewBox="0 0 51.123 32.516">
  <defs>
    <style>
      .cls-1 {
        fill: url(#linear-gradient);
      }

      .cls-2 {
        fill: #fff;
      }
    </style>
    <linearGradient id="linear-gradient" x1="1.199" x2="-0.257" y2="1" gradientUnits="objectBoundingBox">
      <stop offset="0" stop-color="#fe0"/>
      <stop offset="0.506" stop-color="#ff803b"/>
      <stop offset="1" stop-color="#ff0080"/>
    </linearGradient>
  </defs>
  <g id="Group_4" data-name="Group 4" transform="translate(-111.133 -46.141)">
    <path id="Path_1" data-name="Path 1" class="cls-1" d="M10.293-9.2,17.031,0h5.781L13.4-12.324l8.223-8.809H16L9.688-14.492,7.754-12.344V-30H3.066V0H7.754V-6.8ZM32.344,0h4.688V-17.637h7.832v-3.5H37.031v-1.289a6.115,6.115,0,0,1,.283-1.953,3.562,3.562,0,0,1,.85-1.406,3.865,3.865,0,0,1,1.553-.918,7.232,7.232,0,0,1,2.256-.312,14.4,14.4,0,0,1,2.236.156,16.363,16.363,0,0,1,1.768.371l.371-3.73q-.586-.117-1.152-.225t-1.113-.186q-.664-.1-1.357-.166t-1.416-.068a11.728,11.728,0,0,0-3.7.547,7.847,7.847,0,0,0-2.822,1.6,7.176,7.176,0,0,0-1.807,2.646,9.68,9.68,0,0,0-.635,3.643v1.289H26.68v3.5h5.664ZM45.479-2.567a3.165,3.165,0,0,0,.889,2.275,3.285,3.285,0,0,0,2.49.928,3.345,3.345,0,0,0,2.49-.918,3.119,3.119,0,0,0,.908-2.285,3.238,3.238,0,0,0-.9-2.314,3.28,3.28,0,0,0-2.5-.947,3.218,3.218,0,0,0-2.51.957A3.308,3.308,0,0,0,45.479-2.567Z" transform="translate(110 77)"/>
  </g>
  <path id="Path_9" data-name="Path 9" class="cls-2" d="M10.293-9.2,17.031,0h5.781L13.4-12.324l8.223-8.809H16L9.688-14.492,7.754-12.344V-30H3.066V0H7.754V-6.8ZM32.344,0h4.688V-17.637h7.832v-3.5H37.031v-1.289a6.115,6.115,0,0,1,.283-1.953,3.562,3.562,0,0,1,.85-1.406,3.865,3.865,0,0,1,1.553-.918,7.232,7.232,0,0,1,2.256-.312,14.4,14.4,0,0,1,2.236.156,16.363,16.363,0,0,1,1.768.371l.371-3.73q-.586-.117-1.152-.225t-1.113-.186q-.664-.1-1.357-.166t-1.416-.068a11.728,11.728,0,0,0-3.7.547,7.847,7.847,0,0,0-2.822,1.6,7.176,7.176,0,0,0-1.807,2.646,9.68,9.68,0,0,0-.635,3.643v1.289H26.68v3.5h5.664Z" transform="translate(-3.066 32.125)"/>
  <path id="Path_10" data-name="Path 10" class="cls-2" d="M8.848-2.812A3.165,3.165,0,0,0,9.736-.537a3.285,3.285,0,0,0,2.49.928,3.345,3.345,0,0,0,2.49-.918,3.119,3.119,0,0,0,.908-2.285,3.238,3.238,0,0,0-.9-2.314,3.28,3.28,0,0,0-2.5-.947,3.218,3.218,0,0,0-2.51.957A3.308,3.308,0,0,0,8.848-2.812Z" transform="translate(33.934 32.125)"/>
</svg>
